<?xml version="1.0" encoding="utf-8"?>
<!-- Generator: Adobe Illustrator 21.1.0, SVG Export Plug-In . SVG Version: 6.00 Build 0)  -->
<svg version="1.1" id="Layer_1" xmlns="http://www.w3.org/2000/svg" xmlns:xlink="http://www.w3.org/1999/xlink" x="0px" y="0px"
	 viewBox="0 0 609.3 182.7" style="enable-background:new 0 0 609.3 182.7;" xml:space="preserve">
<style type="text/css">
	.st0{fill:#808285;}
	.st1{fill:#4C4C4E;}
	.st2{fill:#FFFFFF;}
	.st3{opacity:0.45;}
	.st4{opacity:0.27;}
</style>
<g>
	<path class="st0" d="M197.6,143.3V137h1.9v6.2c0,2,1,3.1,2.8,3.1c1.7,0,2.7-1,2.7-3V137h1.9v6.2c0,3.3-1.8,4.9-4.7,4.9
		C199.4,148.1,197.6,146.5,197.6,143.3z"/>
	<path class="st0" d="M209.7,137h4.9c1.4,0,2.4,0.4,3.1,1.1c0.6,0.6,0.9,1.4,0.9,2.4v0c0,1.8-1.1,2.9-2.6,3.3l2.9,4.1h-2.3l-2.7-3.8
		h-2.4v3.8h-1.9V137z M214.4,142.4c1.4,0,2.2-0.7,2.2-1.8v0c0-1.2-0.8-1.8-2.3-1.8h-2.8v3.7H214.4z"/>
	<path class="st0" d="M221.1,137h4.9c1.2,0,2.2,0.3,2.9,1c0.5,0.5,0.7,1.1,0.7,1.8v0c0,1.3-0.7,2-1.6,2.4c1.3,0.4,2.2,1.2,2.2,2.7v0
		c0,1.9-1.6,3-4,3h-5.1V137z M225.6,141.6c1.2,0,2.1-0.5,2.1-1.5v0c0-0.9-0.7-1.4-1.9-1.4H223v2.9H225.6z M226.2,146.2
		c1.3,0,2.1-0.5,2.1-1.5v0c0-0.9-0.7-1.5-2.2-1.5h-3v3H226.2z"/>
	<path class="st0" d="M236.4,136.9h1.8l4.8,11h-2l-1.1-2.6h-5.2l-1.1,2.6h-2L236.4,136.9z M239.1,143.6l-1.9-4.4l-1.9,4.4H239.1z"/>
	<path class="st0" d="M245,137h1.8l5.8,7.5V137h1.9v10.9h-1.6l-6-7.8v7.8H245V137z"/>
	<path class="st0" d="M263.6,137h1.9v10.9h-1.9V137z"/>
	<path class="st0" d="M268.9,137h1.8l5.8,7.5V137h1.9v10.9h-1.6l-6-7.8v7.8h-1.9V137z"/>
	<path class="st0" d="M280.9,146.3l1.2-1.4c1,0.9,2.1,1.4,3.4,1.4c1.2,0,1.9-0.5,1.9-1.4v0c0-0.8-0.4-1.2-2.5-1.7
		c-2.3-0.6-3.6-1.2-3.6-3.3v0c0-1.9,1.6-3.2,3.7-3.2c1.6,0,2.9,0.5,4,1.4l-1,1.5c-1-0.7-2-1.1-3-1.1c-1.1,0-1.8,0.6-1.8,1.3v0
		c0,0.8,0.5,1.2,2.6,1.7c2.3,0.6,3.5,1.4,3.5,3.2v0c0,2-1.6,3.3-3.9,3.3C283.8,148.1,282.2,147.5,280.9,146.3z"/>
	<path class="st0" d="M294.2,138.8h-3.5V137h8.9v1.8h-3.5v9.1h-1.9V138.8z"/>
	<path class="st0" d="M302.2,137h1.9v10.9h-1.9V137z"/>
	<path class="st0" d="M310.2,138.8h-3.5V137h8.9v1.8h-3.5v9.1h-1.9V138.8z"/>
	<path class="st0" d="M317.6,143.3V137h1.9v6.2c0,2,1,3.1,2.8,3.1c1.7,0,2.7-1,2.7-3V137h1.9v6.2c0,3.3-1.8,4.9-4.7,4.9
		C319.4,148.1,317.6,146.5,317.6,143.3z"/>
	<path class="st0" d="M332.7,138.8h-3.5V137h8.9v1.8h-3.5v9.1h-1.9V138.8z"/>
	<path class="st0" d="M340.5,137h8.1v1.7h-6.2v2.8h5.5v1.7h-5.5v2.9h6.3v1.7h-8.2V137z"/>
	<path class="st0" d="M363.3,146.7c-0.9,0.9-2,1.4-3.4,1.4c-2,0-3.6-1.2-3.6-3.1v0c0-1.4,0.8-2.4,2.3-3.1c-0.6-0.8-0.9-1.5-0.9-2.3
		v0c0-1.5,1.2-2.7,3.1-2.7c1.7,0,2.9,1.2,2.9,2.6v0c0,1.4-1,2.3-2.4,2.8l1.9,1.9c0.4-0.6,0.8-1.3,1.2-2.1l1.5,0.8
		c-0.4,0.9-0.9,1.7-1.5,2.5l1.7,1.7l-1.4,1L363.3,146.7z M362.2,145.5l-2.4-2.5c-1,0.4-1.5,1.1-1.5,1.8v0c0,0.9,0.8,1.6,1.8,1.6
		C360.9,146.5,361.6,146.1,362.2,145.5z M362.1,139.6L362.1,139.6c0-0.8-0.5-1.3-1.2-1.3c-0.8,0-1.3,0.5-1.3,1.3v0
		c0,0.5,0.2,1,0.8,1.6C361.6,140.9,362.1,140.4,362.1,139.6z"/>
	<path class="st0" d="M373,137h4.9c1.2,0,2.2,0.3,2.9,1c0.5,0.5,0.7,1.1,0.7,1.8v0c0,1.3-0.7,2-1.6,2.4c1.3,0.4,2.2,1.2,2.2,2.7v0
		c0,1.9-1.6,3-4,3h-5V137z M377.5,141.6c1.2,0,2.1-0.5,2.1-1.5v0c0-0.9-0.7-1.4-1.9-1.4h-2.8v2.9H377.5z M378.1,146.2
		c1.3,0,2.1-0.5,2.1-1.5v0c0-0.9-0.7-1.5-2.2-1.5h-3v3H378.1z"/>
	<path class="st0" d="M384.4,137h4.9c1.4,0,2.4,0.4,3.2,1.1c0.6,0.6,0.9,1.4,0.9,2.4v0c0,1.8-1.1,2.9-2.6,3.3l2.9,4.1h-2.3l-2.7-3.8
		h-2.4v3.8h-1.9V137z M389.1,142.4c1.4,0,2.2-0.7,2.2-1.8v0c0-1.2-0.8-1.8-2.3-1.8h-2.8v3.7H389.1z"/>
	<path class="st0" d="M395,142.5L395,142.5c0-3.1,2.4-5.7,5.7-5.7c3.4,0,5.7,2.5,5.7,5.6v0c0,3.1-2.4,5.6-5.7,5.6
		S395,145.6,395,142.5z M404.4,142.5L404.4,142.5c0-2.2-1.5-3.9-3.7-3.9s-3.7,1.7-3.7,3.9v0c0,2.1,1.5,3.9,3.7,3.9
		C402.9,146.4,404.4,144.6,404.4,142.5z"/>
	<path class="st0" d="M407.8,142.5L407.8,142.5c0-3.1,2.4-5.7,5.7-5.7c3.4,0,5.7,2.5,5.7,5.6v0c0,3.1-2.4,5.6-5.7,5.6
		C410.1,148.1,407.8,145.6,407.8,142.5z M417.2,142.5L417.2,142.5c0-2.2-1.5-3.9-3.7-3.9c-2.2,0-3.7,1.7-3.7,3.9v0
		c0,2.1,1.5,3.9,3.7,3.9C415.7,146.4,417.2,144.6,417.2,142.5z"/>
	<path class="st0" d="M421,137h1.9v5.5l5.2-5.5h2.4l-4.5,4.7l4.7,6.2h-2.3l-3.7-4.9l-1.7,1.7v3.2H421V137z"/>
	<path class="st0" d="M432.6,137h1.9v10.9h-1.9V137z"/>
	<path class="st0" d="M438.2,137h1.8l5.8,7.5V137h1.9v10.9h-1.6l-6-7.8v7.8h-1.9V137z"/>
	<path class="st0" d="M449.8,142.5L449.8,142.5c0-3.1,2.3-5.7,5.6-5.7c1.9,0,3.1,0.5,4.2,1.5l-1.2,1.4c-0.8-0.7-1.7-1.2-3.1-1.2
		c-2,0-3.5,1.8-3.5,3.9v0c0,2.2,1.5,3.9,3.7,3.9c1,0,2-0.3,2.6-0.8v-2h-2.8v-1.7h4.6v4.6c-1.1,0.9-2.6,1.7-4.6,1.7
		C452.1,148.1,449.8,145.7,449.8,142.5z"/>
	<path class="st0" d="M461.9,146.3l1.2-1.4c1,0.9,2.1,1.4,3.4,1.4c1.2,0,1.9-0.5,1.9-1.4v0c0-0.8-0.4-1.2-2.5-1.7
		c-2.3-0.6-3.6-1.2-3.6-3.3v0c0-1.9,1.6-3.2,3.7-3.2c1.6,0,2.9,0.5,4,1.4l-1,1.5c-1-0.7-2-1.1-3-1.1c-1.1,0-1.8,0.6-1.8,1.3v0
		c0,0.8,0.5,1.2,2.6,1.7c2.3,0.6,3.5,1.4,3.5,3.2v0c0,2-1.6,3.3-3.9,3.3C464.8,148.1,463.3,147.5,461.9,146.3z"/>
	<path class="st0" d="M478.7,137h1.9v10.9h-1.9V137z"/>
	<path class="st0" d="M484.2,137h1.8l5.8,7.5V137h1.9v10.9h-1.6l-6-7.8v7.8h-1.9V137z"/>
	<path class="st0" d="M496.3,146.3l1.1-1.4c1,0.9,2.1,1.4,3.4,1.4c1.2,0,1.9-0.5,1.9-1.4v0c0-0.8-0.4-1.2-2.5-1.7
		c-2.3-0.6-3.6-1.2-3.6-3.3v0c0-1.9,1.6-3.2,3.7-3.2c1.6,0,2.9,0.5,4,1.4l-1,1.5c-1-0.7-2-1.1-3-1.1c-1.1,0-1.8,0.6-1.8,1.3v0
		c0,0.8,0.5,1.2,2.6,1.7c2.3,0.6,3.5,1.4,3.5,3.2v0c0,2-1.6,3.3-3.9,3.3C499.2,148.1,497.6,147.5,496.3,146.3z"/>
	<path class="st0" d="M509.9,138.8h-3.5V137h8.9v1.8h-3.5v9.1h-1.9V138.8z"/>
	<path class="st0" d="M517.9,137h1.9v10.9h-1.9V137z"/>
	<path class="st0" d="M525.8,138.8h-3.5V137h8.9v1.8h-3.5v9.1h-1.9V138.8z"/>
	<path class="st0" d="M533.2,143.3V137h1.9v6.2c0,2,1,3.1,2.8,3.1c1.7,0,2.7-1,2.7-3V137h1.9v6.2c0,3.3-1.8,4.9-4.7,4.9
		C535,148.1,533.2,146.5,533.2,143.3z"/>
	<path class="st0" d="M548,138.8h-3.5V137h8.9v1.8H550v9.1H548V138.8z"/>
	<path class="st0" d="M556,137h1.9v10.9H556V137z"/>
	<path class="st0" d="M560.5,142.5L560.5,142.5c0-3.1,2.4-5.7,5.7-5.7c3.3,0,5.7,2.5,5.7,5.6v0c0,3.1-2.4,5.6-5.7,5.6
		C562.8,148.1,560.5,145.6,560.5,142.5z M569.9,142.5L569.9,142.5c0-2.2-1.5-3.9-3.7-3.9s-3.7,1.7-3.7,3.9v0c0,2.1,1.5,3.9,3.7,3.9
		C568.4,146.4,569.9,144.6,569.9,142.5z"/>
	<path class="st0" d="M573.7,137h1.8l5.8,7.5V137h1.9v10.9h-1.6l-6-7.8v7.8h-1.9V137z"/>
</g>
<g>
	<path class="st1" d="M199.6,106.5h-7.8v-5.2h21.3v5.2h-7.8v20.5h-5.7V106.5z"/>
	<path class="st1" d="M223.3,101.1h5.2l11,25.9h-5.9l-2.4-5.8h-10.9l-2.4,5.8h-5.8L223.3,101.1z M229.2,116.3l-3.4-8.4l-3.4,8.4
		H229.2z"/>
	<path class="st1" d="M250.9,114l-8.6-12.7h6.6l5.4,8.4l5.5-8.4h6.4l-8.6,12.6l9,13.2H260l-5.8-8.8l-5.8,8.8h-6.4L250.9,114z"/>
	<path class="st1" d="M279.7,101.3h10.5c6.1,0,9.9,3.6,9.9,8.9v0.1c0,6-4.6,9.1-10.4,9.1h-4.3v7.7h-5.7V101.3z M289.8,114.3
		c2.8,0,4.5-1.7,4.5-3.9v-0.1c0-2.5-1.8-3.9-4.6-3.9h-4.4v7.9H289.8z"/>
	<path class="st1" d="M303.5,114.3L303.5,114.3c0-7.4,5.8-13.4,13.7-13.4c7.9,0,13.7,5.9,13.7,13.2v0.1c0,7.3-5.8,13.3-13.7,13.3
		C309.2,127.5,303.5,121.6,303.5,114.3z M324.9,114.3L324.9,114.3c0-4.5-3.2-8.2-7.8-8.2c-4.6,0-7.7,3.6-7.7,8v0.1
		c0,4.4,3.2,8.1,7.8,8.1S324.9,118.7,324.9,114.3z"/>
	<path class="st1" d="M335.5,101.3h5.7v20.6H354v5.2h-18.5V101.3z"/>
	<path class="st1" d="M358.8,101.3h5.7v25.8h-5.7V101.3z"/>
	<path class="st1" d="M369.4,114.3L369.4,114.3c0-7.4,5.5-13.4,13.4-13.4c4.9,0,7.8,1.6,10.2,4l-3.6,4.2c-2-1.8-4-2.9-6.6-2.9
		c-4.3,0-7.5,3.6-7.5,8v0.1c0,4.4,3.1,8.1,7.5,8.1c2.9,0,4.7-1.2,6.8-3l3.6,3.6c-2.6,2.8-5.6,4.6-10.6,4.6
		C375,127.5,369.4,121.7,369.4,114.3z"/>
	<path class="st1" d="M405.3,116.9l-9.9-15.6h6.6l6.1,10.3l6.3-10.3h6.4l-9.9,15.5v10.3h-5.7V116.9z"/>
	<path class="st1" d="M429.1,114.3L429.1,114.3c0-7.4,5.5-13.4,13.4-13.4c4.9,0,7.8,1.6,10.2,4l-3.6,4.2c-2-1.8-4-2.9-6.6-2.9
		c-4.3,0-7.5,3.6-7.5,8v0.1c0,4.4,3.1,8.1,7.5,8.1c2.9,0,4.7-1.2,6.8-3l3.6,3.6c-2.6,2.8-5.6,4.6-10.6,4.6
		C434.7,127.5,429.1,121.7,429.1,114.3z"/>
	<path class="st1" d="M457.8,101.3h19.4v5h-13.8v5.2h12.1v5h-12.1v5.4h14v5h-19.6V101.3z"/>
	<path class="st1" d="M482.8,101.3h5.2l12.1,15.9v-15.9h5.6v25.8h-4.8l-12.5-16.4v16.4h-5.6V101.3z"/>
	<path class="st1" d="M518.2,106.5h-7.8v-5.2h21.3v5.2h-7.8v20.5h-5.7V106.5z"/>
	<path class="st1" d="M536.4,101.3h19.4v5h-13.8v5.2h12.1v5h-12.1v5.4h14v5h-19.6V101.3z"/>
	<path class="st1" d="M561.4,101.3h11.8c3.3,0,5.8,0.9,7.5,2.6c1.4,1.4,2.2,3.5,2.2,5.9v0.1c0,4.2-2.2,6.8-5.5,8l6.3,9.2h-6.6
		l-5.5-8.2h-4.5v8.2h-5.7V101.3z M572.9,113.8c2.8,0,4.3-1.5,4.3-3.6v-0.1c0-2.4-1.7-3.7-4.5-3.7h-5.6v7.4H572.9z"/>
</g>
<path class="st1" d="M26.2,25.9v131.1h153.5V25.9H26.2z M61.3,87.6H40.1V66.4h21.2V87.6z M61.3,61.7H40.1V40.4h21.2V61.7z
	 M87.4,87.6H66.2V66.4h21.2V87.6z M87.4,61.7H66.2V40.4h21.2V61.7z M113.6,87.6H92.4V66.4h21.2V87.6z M113.6,61.7H92.4V40.4h21.2
	V61.7z M139.7,87.6h-21.2V66.4h21.2V87.6z M139.7,61.7h-21.2V40.4h21.2V61.7z M165.8,87.6h-21.2V66.4h21.2V87.6z M165.8,61.7h-21.2
	V40.4h21.2V61.7z"/>
<g>
	<g>
		<path class="st2" d="M53.6,109.1H40.3v-8.9h36.3v8.9H63.2V144h-9.6V109.1z"/>
		<path class="st2" d="M85.8,100.2h17.9c10.4,0,16.8,6.2,16.8,15.1v0.1c0,10.1-7.9,15.4-17.7,15.4h-7.3V144h-9.6V100.2z
			 M103.1,122.3c4.8,0,7.6-2.9,7.6-6.6v-0.1c0-4.3-3-6.6-7.8-6.6h-7.4v13.4H103.1z"/>
		<path class="st2" d="M125.9,122.3v-0.1c0-12.4,9.4-22.6,22.8-22.6c8.3,0,13.2,2.7,17.3,6.8l-6.1,7.1c-3.4-3.1-6.8-4.9-11.2-4.9
			c-7.4,0-12.7,6.1-12.7,13.6v0.1c0,7.5,5.2,13.8,12.7,13.8c5,0,8.1-2,11.5-5.1l6.1,6.2c-4.5,4.8-9.5,7.8-18,7.8
			C135.5,144.8,125.9,134.8,125.9,122.3z"/>
	</g>
</g>
<g class="st3">
	<g>
		<g>
			<rect x="40.1" y="40.4" width="21.2" height="21.2"/>
		</g>
	</g>
</g>
<g class="st3">
	<g>
		<g>
			<rect x="118.5" y="40.4" width="21.2" height="21.2"/>
		</g>
	</g>
</g>
<g class="st3">
	<g>
		<g>
			<rect x="144.6" y="40.4" width="21.2" height="21.2"/>
		</g>
	</g>
</g>
<g class="st3">
	<g>
		<g>
			<rect x="118.5" y="66.4" width="21.2" height="21.2"/>
		</g>
	</g>
</g>
<g class="st4">
	<g>
		<g>
			<g>
				<rect x="66.2" y="40.4" width="21.2" height="21.2"/>
			</g>
		</g>
	</g>
	<g>
		<g>
			<g>
				<rect x="92.4" y="40.4" width="21.2" height="21.2"/>
			</g>
		</g>
	</g>
	<g>
		<g>
			<g>
				<rect x="40.1" y="66.4" width="21.2" height="21.2"/>
			</g>
		</g>
	</g>
	<g>
		<g>
			<g>
				<rect x="66.2" y="66.4" width="21.2" height="21.2"/>
			</g>
		</g>
	</g>
	<g>
		<g>
			<g>
				<rect x="92.4" y="66.4" width="21.2" height="21.2"/>
			</g>
		</g>
	</g>
	<g>
		<g>
			<g>
				<rect x="144.6" y="66.4" width="21.2" height="21.2"/>
			</g>
		</g>
	</g>
</g>
</svg>
