<?xml version="1.0" encoding="utf-8"?>
<!-- Generator: Adobe Illustrator 21.1.0, SVG Export Plug-In . SVG Version: 6.00 Build 0)  -->
<svg version="1.1" id="Layer_1" xmlns="http://www.w3.org/2000/svg" xmlns:xlink="http://www.w3.org/1999/xlink" x="0px" y="0px"
	 viewBox="0 0 280 90" style="enable-background:new 0 0 280 90;" xml:space="preserve">
<style type="text/css">
	.st0{fill:#FFFFFF;}
	.st1{clip-path:url(#SVGID_2_);}
	.st2{clip-path:url(#SVGID_4_);}
	.st3{clip-path:url(#SVGID_6_);fill:#A1D2CE;}
	.st4{clip-path:url(#SVGID_6_);fill:#FAAF42;}
	.st5{clip-path:url(#SVGID_6_);fill:#FFDD77;}
	.st6{clip-path:url(#SVGID_6_);fill:#BFC949;}
	.st7{clip-path:url(#SVGID_6_);fill:#00ABBE;}
	.st8{clip-path:url(#SVGID_6_);}
	.st9{clip-path:url(#SVGID_8_);fill:#ADA434;}
	.st10{clip-path:url(#SVGID_10_);fill:#ADA434;}
	.st11{clip-path:url(#SVGID_12_);fill:#ADA434;}
	.st12{clip-path:url(#SVGID_14_);fill:#018DB3;}
	.st13{clip-path:url(#SVGID_6_);fill:#F47C4B;}
	.st14{clip-path:url(#SVGID_16_);fill:#ADA434;}
	.st15{clip-path:url(#SVGID_6_);fill:#8C4D33;}
	.st16{clip-path:url(#SVGID_18_);fill:#FFFFFF;}
	.st17{clip-path:url(#SVGID_20_);fill:#FFFFFF;}
	.st18{clip-path:url(#SVGID_22_);fill:#FFFFFF;}
	.st19{clip-path:url(#SVGID_6_);fill:#77BAB5;}
	.st20{clip-path:url(#SVGID_24_);fill:#018DB3;}
	.st21{clip-path:url(#SVGID_6_);fill:#73BBC5;}
	.st22{clip-path:url(#SVGID_26_);fill:#FFFFFF;}
	.st23{clip-path:url(#SVGID_28_);fill:#FFFFFF;}
	.st24{clip-path:url(#SVGID_30_);fill:#BFC949;}
	.st25{clip-path:url(#SVGID_6_);fill:#018DB3;}
	.st26{clip-path:url(#SVGID_32_);fill:#018DB3;}
	.st27{clip-path:url(#SVGID_34_);fill:#BFC949;}
	.st28{clip-path:url(#SVGID_36_);fill:#018DB3;}
	.st29{clip-path:url(#SVGID_38_);fill:#FFFFFF;}
	.st30{clip-path:url(#SVGID_40_);fill:#FFFFFF;}
	.st31{clip-path:url(#SVGID_42_);fill:#FFFFFF;}
	.st32{clip-path:url(#SVGID_44_);fill:#FFFFFF;}
	.st33{clip-path:url(#SVGID_46_);fill:#018DB3;}
	.st34{clip-path:url(#SVGID_48_);fill:#018DB3;}
	.st35{clip-path:url(#SVGID_50_);fill:#ADA434;}
	.st36{clip-path:url(#SVGID_52_);fill:#ADA434;}
	.st37{clip-path:url(#SVGID_54_);fill:#ADA434;}
	.st38{clip-path:url(#SVGID_56_);fill:#018DB3;}
	.st39{clip-path:url(#SVGID_58_);fill:#ADA434;}
	.st40{clip-path:url(#SVGID_60_);fill:#0E5367;}
	.st41{clip-path:url(#SVGID_62_);fill:#FFFFFF;}
	.st42{clip-path:url(#SVGID_64_);fill:#ADA434;}
	.st43{clip-path:url(#SVGID_66_);fill:#FFFFFF;}
	.st44{clip-path:url(#SVGID_68_);fill:#FFFFFF;}
	.st45{clip-path:url(#SVGID_70_);fill:#006838;}
	.st46{clip-path:url(#SVGID_72_);fill:#FFFFFF;}
	.st47{clip-path:url(#SVGID_74_);fill:#778828;}
	.st48{clip-path:url(#SVGID_6_);fill:#FFFFFF;}
	.st49{clip-path:url(#SVGID_76_);fill:#ADA434;}
	.st50{clip-path:url(#SVGID_78_);fill:#ADA434;}
	.st51{clip-path:url(#SVGID_80_);fill:#ADA434;}
	.st52{clip-path:url(#SVGID_82_);fill:#ADA434;}
	.st53{clip-path:url(#SVGID_84_);fill:#ADA434;}
	.st54{clip-path:url(#SVGID_6_);fill:#778828;}
	.st55{clip-path:url(#SVGID_6_);fill:#ADA434;}
	.st56{clip-path:url(#SVGID_86_);fill:#778828;}
	.st57{clip-path:url(#SVGID_88_);fill:#ADA434;}
	.st58{clip-path:url(#SVGID_90_);fill:#ADA434;}
	.st59{clip-path:url(#SVGID_92_);fill:#FFFFFF;}
	.st60{clip-path:url(#SVGID_94_);fill:#FFFFFF;}
	.st61{clip-path:url(#SVGID_96_);fill:#FFFFFF;}
	.st62{clip-path:url(#SVGID_98_);fill:#778828;}
	.st63{clip-path:url(#SVGID_100_);fill:#FFFFFF;}
	.st64{clip-path:url(#SVGID_102_);fill:#FFFFFF;}
	.st65{clip-path:url(#SVGID_104_);fill:#D48668;}
	.st66{clip-path:url(#SVGID_106_);fill:#FFFFFF;}
	.st67{clip-path:url(#SVGID_108_);fill:#FFFFFF;}
	.st68{clip-path:url(#SVGID_6_);fill:#B35E3D;}
	.st69{clip-path:url(#SVGID_110_);fill:#FFFFFF;}
	.st70{clip-path:url(#SVGID_112_);fill:#778828;}
	.st71{clip-path:url(#SVGID_114_);fill:#FFFFFF;}
	.st72{clip-path:url(#SVGID_116_);fill:#ADA434;}
	.st73{clip-path:url(#SVGID_118_);fill:#ADA434;}
	.st74{clip-path:url(#SVGID_6_);fill:#03A8B8;}
	.st75{clip-path:url(#SVGID_6_);fill:#B7C646;}
	.st76{clip-path:url(#SVGID_6_);fill:#93CEC9;}
</style>
<rect class="st0" width="280" height="90"/>
<g id="HHM_logo_vector">
	<g>
		<defs>
			<rect id="SVGID_1_" x="10" y="7" width="259.8" height="75.5"/>
		</defs>
		<clipPath id="SVGID_2_">
			<use xlink:href="#SVGID_1_"  style="overflow:visible;"/>
		</clipPath>
		<g class="st1">
			<defs>
				<rect id="SVGID_3_" x="10" y="7" width="259.8" height="75.5"/>
			</defs>
			<clipPath id="SVGID_4_">
				<use xlink:href="#SVGID_3_"  style="overflow:visible;"/>
			</clipPath>
			<g class="st2">
				<defs>
					<rect id="SVGID_5_" x="10" y="7" width="259.8" height="75.5"/>
				</defs>
				<clipPath id="SVGID_6_">
					<use xlink:href="#SVGID_5_"  style="overflow:visible;"/>
				</clipPath>
				<path class="st3" d="M71.6,60.2c4.2,0,6.1,3.1,6.1,7.5c0,3.1-1.6,5.8-3.2,7.2c0,0,0.1,0,0.1,0c3.1-2.3,7.3-3.9,12.9-4.2
					C85.3,68.5,84,65,84,61.2c0-6,1.8-11.8,6.5-13.4V24.4l-24-17.2l0.1,56.7C67.5,61.7,69.1,60.2,71.6,60.2 M74.3,49.1l-2.5-1.5V42
					l2.5,1.5V49.1z M74.3,21l0,5.6l-2.5-1.5l0-5.6L74.3,21z M74.3,32.2v5.6l-2.5-1.5v-5.6L74.3,32.2z"/>
				<path class="st3" d="M66.7,72.6l0,2.1c0.1,0.1,0.3,0.1,0.4,0.2c0.4,0,0.7-0.1,1.1-0.1C67.6,74.2,67.1,73.5,66.7,72.6"/>
				<polygon class="st3" points="66.2,7 66.2,7.2 66.4,7.1 				"/>
				<path class="st4" d="M98.5,70.6c-0.1,0.1-0.2,0.2-0.4,0.4c0.2,0,0.4,0,0.6,0.1C98.7,70.9,98.6,70.7,98.5,70.6"/>
				<path class="st4" d="M103.1,58.2c0.1,0,0.2,0,0.4,0c4.2,0,6.1,3.1,6.1,7.5c0,2.9-1.5,5.5-3,6.9c0.4,0.1,0.7,0.3,1.1,0.4
					c0.8,0.1,1.5,0.2,2.1,0.4v-25L92.9,36.2l-0.1,11.1c0.2,0,0.3,0,0.5,0C99.7,47.3,102.8,51.8,103.1,58.2"/>
				<path class="st5" d="M122.5,63.2l-10.9-7.8l-0.2,18.5c3.3,1.2,4.8,3.6,5.3,7.7l5.8,0V63.2z M115.4,67.1v-4.2l1.9,0.9l0,4.2
					L115.4,67.1z"/>
				<path class="st6" d="M26.4,61.8c0,3.1-1.6,5.8-3.2,7.2c7,0.5,9.5,2.8,10.4,8.5c1.8-1.5,3.9-2.7,6.5-3.6l-0.4-39.6L22.8,46.4v8.3
					C25.3,55.8,26.4,58.4,26.4,61.8 M33.4,44.9l1.9-1.4v4.2l-1.9,1.4L33.4,44.9z M33.4,54.3l1.9-1.4v4.2l-1.9,1.4L33.4,54.3z
					 M33.4,63.7l1.9-1.4v4.2l-1.9,1.4V63.7z"/>
				<path class="st7" d="M14.6,62.9c0-1.1,0.1-2.2,0.3-3.2L10,63.2v7.4c1.8-0.9,4-1.4,7-1.6C15.4,67.6,14.6,65.4,14.6,62.9"/>
				<polygon class="st7" points="66.5,7 66.4,7.1 66.5,7.2 				"/>
				<path class="st7" d="M66.7,63.9L66.5,7.2l-0.2-0.1l-0.2,0.1l-24,17.2v49c1.5-0.3,3.2-0.6,5.1-0.7c-2.2-2.2-3.5-5.6-3.5-9.5
					c0-7.1,2.5-13.9,9.3-13.9s9.8,5.1,9.8,12.2c0,4.9-2.5,9.1-5,11.5c3.1,0.3,5.8,0.8,8.1,1.5l0-4c-0.1-0.5-0.1-1.1-0.1-1.7
					c0-0.8,0.1-1.5,0.2-2.3C66.2,65.5,66.4,64.7,66.7,63.9"/>
				<path class="st7" d="M66.7,72.6c-0.3-0.7-0.5-1.4-0.7-2.2l0,4c0.2,0.1,0.5,0.2,0.7,0.2L66.7,72.6z"/>
				<g class="st8">
					<g>
						<defs>
							<rect id="SVGID_7_" x="90.5" y="47.4" width="2.3" height="23.3"/>
						</defs>
						<clipPath id="SVGID_8_">
							<use xlink:href="#SVGID_7_"  style="overflow:visible;"/>
						</clipPath>
						<path class="st9" d="M92.6,70.6l0.2-23.3c-0.8,0-1.6,0.2-2.3,0.4v22.8C91.2,70.6,91.9,70.6,92.6,70.6"/>
					</g>
				</g>
				<path class="st3" d="M84,61.2c0,3.8,1.3,7.3,3.5,9.5c0.7,0,1.3-0.1,2-0.1c0.3,0,0.6,0,1,0V47.8C85.8,49.4,84,55.2,84,61.2"/>
				<g class="st8">
					<g>
						<defs>
							<rect id="SVGID_9_" x="84" y="47.8" width="6.5" height="22.9"/>
						</defs>
						<clipPath id="SVGID_10_">
							<use xlink:href="#SVGID_9_"  style="overflow:visible;"/>
						</clipPath>
						<path class="st10" d="M84,61.2c0,3.8,1.3,7.3,3.5,9.5c0.7,0,1.3-0.1,2-0.1c0.3,0,0.6,0,1,0V47.8C85.8,49.4,84,55.2,84,61.2"/>
					</g>
				</g>
				<path class="st4" d="M98.2,70.9c0.1-0.1,0.2-0.2,0.4-0.4c-0.5-1.1-0.8-2.4-0.8-3.8c0-4.2,1.5-8.3,5.4-8.6
					c-0.4-6.4-3.4-10.9-9.8-10.9c-0.2,0-0.4,0-0.5,0l-0.2,23.3C94.6,70.7,96.4,70.8,98.2,70.9"/>
				<g class="st8">
					<g>
						<defs>
							<rect id="SVGID_11_" x="92.6" y="47.3" width="10.6" height="23.6"/>
						</defs>
						<clipPath id="SVGID_12_">
							<use xlink:href="#SVGID_11_"  style="overflow:visible;"/>
						</clipPath>
						<path class="st11" d="M98.2,70.9c0.1-0.1,0.2-0.2,0.4-0.4c-0.5-1.1-0.8-2.4-0.8-3.8c0-4.2,1.5-8.3,5.4-8.6
							c-0.4-6.4-3.4-10.9-9.8-10.9c-0.2,0-0.4,0-0.5,0l-0.2,23.3C94.6,70.7,96.4,70.8,98.2,70.9"/>
					</g>
				</g>
				<path class="st7" d="M62.9,61.5c0-7.1-3-12.2-9.8-12.2c-6.8,0-9.3,6.8-9.3,13.9c0,3.8,1.3,7.3,3.5,9.5c0.7,0,1.3-0.1,2-0.1
					c3.2,0,6,0.1,8.6,0.3C60.4,70.6,62.9,66.4,62.9,61.5"/>
				<g class="st8">
					<g>
						<defs>
							<rect id="SVGID_13_" x="43.8" y="49.3" width="19.1" height="23.6"/>
						</defs>
						<clipPath id="SVGID_14_">
							<use xlink:href="#SVGID_13_"  style="overflow:visible;"/>
						</clipPath>
						<path class="st12" d="M62.9,61.5c0-7.1-3-12.2-9.8-12.2c-6.8,0-9.3,6.8-9.3,13.9c0,3.8,1.3,7.3,3.5,9.5c0.7,0,1.3-0.1,2-0.1
							c3.2,0,6,0.1,8.6,0.3C60.4,70.6,62.9,66.4,62.9,61.5"/>
					</g>
				</g>
				<path class="st4" d="M106.6,72.6c1.5-1.5,3-4,3-6.9c0-4.4-1.9-7.5-6.1-7.5c-0.1,0-0.2,0-0.4,0c0,0.4,0,0.9,0,1.3
					c0,4.7-2.3,8.7-4.6,11.1c0.1,0.1,0.1,0.3,0.2,0.4C101.8,71.3,104.4,71.8,106.6,72.6"/>
				<path class="st13" d="M106.6,72.6c1.5-1.5,3-4,3-6.9c0-4.4-1.9-7.5-6.1-7.5c-0.1,0-0.2,0-0.4,0c0,0.4,0,0.9,0,1.3
					c0,4.7-2.3,8.7-4.6,11.1c0.1,0.1,0.1,0.3,0.2,0.4C101.8,71.3,104.4,71.8,106.6,72.6"/>
				<path class="st4" d="M103.1,58.2c-3.9,0.2-5.4,4.3-5.4,8.6c0,1.4,0.3,2.7,0.8,3.8c2.4-2.4,4.6-6.4,4.6-11.1
					C103.2,59,103.2,58.6,103.1,58.2"/>
				<g class="st8">
					<g>
						<defs>
							<rect id="SVGID_15_" x="97.8" y="58.2" width="5.4" height="12.4"/>
						</defs>
						<clipPath id="SVGID_16_">
							<use xlink:href="#SVGID_15_"  style="overflow:visible;"/>
						</clipPath>
						<path class="st14" d="M103.1,58.2c-3.9,0.2-5.4,4.3-5.4,8.6c0,1.4,0.3,2.7,0.8,3.8c2.4-2.4,4.6-6.4,4.6-11.1
							C103.2,59,103.2,58.6,103.1,58.2"/>
					</g>
				</g>
				<path class="st15" d="M103.1,58.2c-3.9,0.2-5.4,4.3-5.4,8.6c0,1.4,0.3,2.7,0.8,3.8c2.4-2.4,4.6-6.4,4.6-11.1
					C103.2,59,103.2,58.6,103.1,58.2"/>
				<g class="st8">
					<g>
						<defs>
							<rect id="SVGID_17_" x="109.8" y="73.4" width="1.6" height="1.7"/>
						</defs>
						<clipPath id="SVGID_18_">
							<use xlink:href="#SVGID_17_"  style="overflow:visible;"/>
						</clipPath>
						<path class="st16" d="M111.4,75l0-1.2c-0.5-0.2-1-0.3-1.6-0.5V74C110.3,74.3,110.9,74.7,111.4,75"/>
					</g>
				</g>
				<path class="st4" d="M109.8,74v-0.7c-0.6-0.1-1.4-0.3-2.1-0.3C108.4,73.3,109.1,73.6,109.8,74"/>
				<g class="st8">
					<g>
						<defs>
							<rect id="SVGID_19_" x="107.7" y="73" width="2.1" height="1"/>
						</defs>
						<clipPath id="SVGID_20_">
							<use xlink:href="#SVGID_19_"  style="overflow:visible;"/>
						</clipPath>
						<path class="st17" d="M109.8,74v-0.7c-0.6-0.1-1.4-0.3-2.1-0.3C108.4,73.3,109.1,73.6,109.8,74"/>
					</g>
				</g>
				<path class="st5" d="M111.4,73.8l0,1.2c2.2,1.6,3.8,3.7,4.9,6.5h0.4C116.1,77.4,114.7,75,111.4,73.8"/>
				<g class="st8">
					<g>
						<defs>
							<rect id="SVGID_21_" x="111.4" y="73.8" width="5.4" height="7.7"/>
						</defs>
						<clipPath id="SVGID_22_">
							<use xlink:href="#SVGID_21_"  style="overflow:visible;"/>
						</clipPath>
						<path class="st18" d="M111.4,73.8l0,1.2c2.2,1.6,3.8,3.7,4.9,6.5h0.4C116.1,77.4,114.7,75,111.4,73.8"/>
					</g>
				</g>
				<path class="st3" d="M68.3,74.8c0.6,0,1.2-0.1,1.8-0.1c1.6,0,3.1,0,4.4,0.1c1.6-1.4,3.2-4.1,3.2-7.2c0-4.4-1.9-7.5-6.1-7.5
					c-2.6,0-4.1,1.6-5,3.8l0,8.7C67.1,73.5,67.6,74.2,68.3,74.8"/>
				<path class="st19" d="M68.3,74.8c0.6,0,1.2-0.1,1.8-0.1c1.6,0,3.1,0,4.4,0.1c1.6-1.4,3.2-4.1,3.2-7.2c0-4.4-1.9-7.5-6.1-7.5
					c-2.6,0-4.1,1.6-5,3.8l0,8.7C67.1,73.5,67.6,74.2,68.3,74.8"/>
				<path class="st7" d="M65.9,68.7c0,0.6,0,1.1,0.1,1.7l0-4C65.9,67.2,65.9,68,65.9,68.7"/>
				<path class="st7" d="M66.7,63.9c-0.3,0.8-0.5,1.6-0.6,2.5l0,4c0.1,0.8,0.4,1.5,0.7,2.2L66.7,63.9z"/>
				<g class="st8">
					<g>
						<defs>
							<rect id="SVGID_23_" x="65.9" y="63.9" width="0.8" height="8.7"/>
						</defs>
						<clipPath id="SVGID_24_">
							<use xlink:href="#SVGID_23_"  style="overflow:visible;"/>
						</clipPath>
						<path class="st20" d="M66.7,63.9c-0.3,0.8-0.5,1.6-0.6,2.5c-0.1,0.7-0.2,1.5-0.2,2.3c0,0.6,0.1,1.1,0.1,1.7
							c0.1,0.8,0.4,1.5,0.7,2.2L66.7,63.9z"/>
					</g>
				</g>
				<path class="st3" d="M68.3,74.8c-0.4,0-0.8,0-1.1,0.1c1.8,0.7,3.3,1.6,4.6,2.6c0.8-1,1.8-1.8,2.8-2.6c0,0-0.1,0-0.1,0
					c-0.6,0.6-1.3,0.9-1.8,1C70.9,76.3,69.4,75.8,68.3,74.8"/>
				<path class="st21" d="M68.3,74.8c-0.4,0-0.8,0-1.1,0.1c1.8,0.7,3.3,1.6,4.6,2.6c0.8-1,1.8-1.8,2.8-2.6c0,0-0.1,0-0.1,0
					c-0.6,0.6-1.3,0.9-1.8,1C70.9,76.3,69.4,75.8,68.3,74.8"/>
				<path class="st3" d="M68.3,74.8c1.1,1,2.6,1.5,4.4,1.1c0.5-0.1,1.1-0.5,1.8-1c-1.3-0.1-2.8-0.1-4.4-0.1
					C69.4,74.7,68.8,74.8,68.3,74.8"/>
				<g class="st8">
					<g>
						<defs>
							<rect id="SVGID_25_" x="68.3" y="74.7" width="6.2" height="1.3"/>
						</defs>
						<clipPath id="SVGID_26_">
							<use xlink:href="#SVGID_25_"  style="overflow:visible;"/>
						</clipPath>
						<path class="st22" d="M68.3,74.8c1.1,1,2.6,1.5,4.4,1.1c0.5-0.1,1.1-0.5,1.8-1c-1.3-0.1-2.8-0.1-4.4-0.1
							C69.4,74.7,68.8,74.8,68.3,74.8"/>
					</g>
				</g>
				<path class="st19" d="M68.3,74.8c1.1,1,2.6,1.5,4.4,1.1c0.5-0.1,1.1-0.5,1.8-1c-1.3-0.1-2.8-0.1-4.4-0.1
					C69.4,74.7,68.8,74.8,68.3,74.8"/>
				<g class="st8">
					<g>
						<defs>
							<rect id="SVGID_27_" x="14.9" y="54.3" width="7.9" height="14.7"/>
						</defs>
						<clipPath id="SVGID_28_">
							<use xlink:href="#SVGID_27_"  style="overflow:visible;"/>
						</clipPath>
						<path class="st23" d="M21.1,68.9c0.6,0,1.1,0.1,1.7,0.1V54.8c-0.7-0.3-1.5-0.4-2.4-0.4c-3.1,0-4.8,2.4-5.4,5.4l6.1-4.3
							L21.1,68.9z"/>
					</g>
				</g>
				<path class="st6" d="M23.2,69c1.6-1.4,3.2-4.1,3.2-7.2c0-3.4-1.1-6.1-3.6-7.1V69C22.9,69,23,69,23.2,69"/>
				<g class="st8">
					<g>
						<defs>
							<rect id="SVGID_29_" x="22.8" y="54.8" width="3.6" height="14.3"/>
						</defs>
						<clipPath id="SVGID_30_">
							<use xlink:href="#SVGID_29_"  style="overflow:visible;"/>
						</clipPath>
						<path class="st24" d="M23.2,69c1.6-1.4,3.2-4.1,3.2-7.2c0-3.4-1.1-6.1-3.6-7.1V69C22.9,69,23,69,23.2,69"/>
					</g>
				</g>
				<path class="st25" d="M17,69c0.6,0,1.2-0.1,1.8-0.1c0.8,0,1.6,0,2.4,0l-0.2-13.6l-6.1,4.3c-0.2,1-0.3,2.1-0.3,3.2
					C14.6,65.4,15.4,67.7,17,69"/>
				<g class="st8">
					<g>
						<defs>
							<rect id="SVGID_31_" x="14.6" y="55.4" width="6.5" height="13.6"/>
						</defs>
						<clipPath id="SVGID_32_">
							<use xlink:href="#SVGID_31_"  style="overflow:visible;"/>
						</clipPath>
						<path class="st26" d="M17,69c0.6,0,1.2-0.1,1.8-0.1c0.8,0,1.6,0,2.4,0l-0.2-13.6l-6.1,4.3c-0.2,1-0.3,2.1-0.3,3.2
							C14.6,65.4,15.4,67.7,17,69"/>
					</g>
				</g>
				<path class="st6" d="M33.5,77.5c-0.8-5.7-3.4-7.9-10.4-8.5c-0.1,0.1-0.3,0.2-0.4,0.3v12.1H30C31,80,32.2,78.7,33.5,77.5"/>
				<g class="st8">
					<g>
						<defs>
							<rect id="SVGID_33_" x="22.8" y="69" width="10.8" height="12.5"/>
						</defs>
						<clipPath id="SVGID_34_">
							<use xlink:href="#SVGID_33_"  style="overflow:visible;"/>
						</clipPath>
						<path class="st27" d="M33.5,77.5c-0.8-5.7-3.4-7.9-10.4-8.5c-0.1,0.1-0.3,0.2-0.4,0.3v12.1H30C31,80,32.2,78.7,33.5,77.5"/>
					</g>
				</g>
				<path class="st25" d="M21.2,81.5l-0.1-11.4C19.5,70.4,18,69.9,17,69c-2.9,0.2-5.2,0.7-7,1.6v10.9L21.2,81.5z"/>
				<g class="st8">
					<g>
						<defs>
							<rect id="SVGID_35_" x="10" y="69" width="11.2" height="12.5"/>
						</defs>
						<clipPath id="SVGID_36_">
							<use xlink:href="#SVGID_35_"  style="overflow:visible;"/>
						</clipPath>
						<path class="st28" d="M21.2,81.5l-0.1-11.4C19.5,70.4,18,69.9,17,69c-2.9,0.2-5.2,0.7-7,1.6v10.9L21.2,81.5z"/>
					</g>
				</g>
				<g class="st8">
					<g>
						<defs>
							<rect id="SVGID_37_" x="21.1" y="68.9" width="1.7" height="1.2"/>
						</defs>
						<clipPath id="SVGID_38_">
							<use xlink:href="#SVGID_37_"  style="overflow:visible;"/>
						</clipPath>
						<path class="st29" d="M21.1,68.9l0,1.2c0.1,0,0.2,0,0.3,0c0.4-0.1,0.9-0.3,1.4-0.7V69C22.2,69,21.7,68.9,21.1,68.9"/>
					</g>
				</g>
				<g class="st8">
					<g>
						<defs>
							<rect id="SVGID_39_" x="21.1" y="68.9" width="1.7" height="1.2"/>
						</defs>
						<clipPath id="SVGID_40_">
							<use xlink:href="#SVGID_39_"  style="overflow:visible;"/>
						</clipPath>
						<path class="st30" d="M21.1,68.9l0,1.2c0.1,0,0.2,0,0.3,0c0.4-0.1,0.9-0.3,1.4-0.7V69C22.2,69,21.7,68.9,21.1,68.9"/>
					</g>
				</g>
				<path class="st6" d="M22.8,69v0.4c0.1-0.1,0.3-0.2,0.4-0.3C23,69,22.9,69,22.8,69"/>
				<g class="st8">
					<g>
						<defs>
							<rect id="SVGID_41_" x="22.8" y="69" width="0.4" height="0.4"/>
						</defs>
						<clipPath id="SVGID_42_">
							<use xlink:href="#SVGID_41_"  style="overflow:visible;"/>
						</clipPath>
						<path class="st31" d="M22.8,69v0.4c0.1-0.1,0.3-0.2,0.4-0.3C23,69,22.9,69,22.8,69"/>
					</g>
				</g>
				<g class="st8">
					<g>
						<defs>
							<rect id="SVGID_43_" x="22.8" y="69" width="0.4" height="0.4"/>
						</defs>
						<clipPath id="SVGID_44_">
							<use xlink:href="#SVGID_43_"  style="overflow:visible;"/>
						</clipPath>
						<path class="st32" d="M22.8,69v0.4c0.1-0.1,0.3-0.2,0.4-0.3C23,69,22.9,69,22.8,69"/>
					</g>
				</g>
				<path class="st25" d="M18.7,68.9c-0.6,0-1.2,0-1.8,0.1c1.1,0.9,2.5,1.4,4.2,1.1l0-1.2C20.4,68.9,19.6,68.9,18.7,68.9"/>
				<g class="st8">
					<g>
						<defs>
							<rect id="SVGID_45_" x="17" y="68.9" width="4.2" height="1.3"/>
						</defs>
						<clipPath id="SVGID_46_">
							<use xlink:href="#SVGID_45_"  style="overflow:visible;"/>
						</clipPath>
						<path class="st33" d="M18.7,68.9c-0.6,0-1.2,0-1.8,0.1c1.1,0.9,2.5,1.4,4.2,1.1l0-1.2C20.4,68.9,19.6,68.9,18.7,68.9"/>
					</g>
				</g>
				<g class="st8">
					<g>
						<defs>
							<rect id="SVGID_47_" x="17" y="68.9" width="4.2" height="1.3"/>
						</defs>
						<clipPath id="SVGID_48_">
							<use xlink:href="#SVGID_47_"  style="overflow:visible;"/>
						</clipPath>
						<path class="st34" d="M18.7,68.9c-0.6,0-1.2,0-1.8,0.1c1.1,0.9,2.5,1.4,4.2,1.1l0-1.2C20.4,68.9,19.6,68.9,18.7,68.9"/>
					</g>
				</g>
				<g class="st8">
					<g>
						<defs>
							<rect id="SVGID_49_" x="33.9" y="73.4" width="22.7" height="8.2"/>
						</defs>
						<clipPath id="SVGID_50_">
							<use xlink:href="#SVGID_49_"  style="overflow:visible;"/>
						</clipPath>
						<path class="st35" d="M42.2,81.5v-8.1c-0.8,0.2-1.5,0.4-2.2,0.6l0.1,7.5h-6.2c0,0,0,0,0,0h22.7c0,0,0,0,0,0H42.2z"/>
					</g>
				</g>
				<path class="st3" d="M66.7,74.9c0.1,0,0.3,0,0.4-0.1c-0.1-0.1-0.3-0.1-0.4-0.2V74.9z"/>
				<g class="st8">
					<g>
						<defs>
							<rect id="SVGID_51_" x="66.7" y="74.7" width="0.4" height="0.2"/>
						</defs>
						<clipPath id="SVGID_52_">
							<use xlink:href="#SVGID_51_"  style="overflow:visible;"/>
						</clipPath>
						<path class="st36" d="M66.7,74.9c0.1,0,0.3,0,0.4-0.1c-0.1-0.1-0.3-0.1-0.4-0.2V74.9z"/>
					</g>
				</g>
				<path class="st6" d="M33.9,81.5h6.2L40,74c-2.6,0.8-4.7,2.1-6.5,3.6C33.7,78.7,33.8,80,33.9,81.5"/>
				<g class="st8">
					<g>
						<defs>
							<rect id="SVGID_53_" x="33.5" y="74" width="6.6" height="7.5"/>
						</defs>
						<clipPath id="SVGID_54_">
							<use xlink:href="#SVGID_53_"  style="overflow:visible;"/>
						</clipPath>
						<path class="st37" d="M33.9,81.5h6.2L40,74c-2.6,0.8-4.7,2.1-6.5,3.6C33.7,78.7,33.8,80,33.9,81.5"/>
					</g>
				</g>
				<path class="st7" d="M56.6,81.5c1.3-3.3,4-5.7,9.4-6.5l0-0.6c-2.3-0.8-5-1.2-8.1-1.5c-1.1,1-2.2,1.7-3.1,1.9
					c-3.1,0.6-5.6-0.3-7.5-2.1c-1.8,0.1-3.5,0.3-5.1,0.7v8.1H56.6z"/>
				<g class="st8">
					<g>
						<defs>
							<rect id="SVGID_55_" x="42.2" y="72.7" width="23.8" height="8.8"/>
						</defs>
						<clipPath id="SVGID_56_">
							<use xlink:href="#SVGID_55_"  style="overflow:visible;"/>
						</clipPath>
						<path class="st38" d="M56.6,81.5c1.3-3.3,4-5.7,9.4-6.5l0-0.6c-2.3-0.8-5-1.2-8.1-1.5c-1.1,1-2.2,1.7-3.1,1.9
							c-3.1,0.6-5.6-0.3-7.5-2.1c-1.8,0.1-3.5,0.3-5.1,0.7v8.1H56.6z"/>
					</g>
				</g>
				<path class="st7" d="M66.7,74.7c-0.2-0.1-0.4-0.2-0.7-0.2l0,0.6c0.2,0,0.5-0.1,0.7-0.1V74.7z"/>
				<g class="st8">
					<g>
						<defs>
							<rect id="SVGID_57_" x="66" y="74.5" width="0.7" height="0.6"/>
						</defs>
						<clipPath id="SVGID_58_">
							<use xlink:href="#SVGID_57_"  style="overflow:visible;"/>
						</clipPath>
						<path class="st39" d="M66.7,74.7c-0.2-0.1-0.4-0.2-0.7-0.2l0,0.6c0.2,0,0.5-0.1,0.7-0.1V74.7z"/>
					</g>
				</g>
				<path class="st7" d="M47.3,72.7c1.9,1.8,4.5,2.8,7.5,2.1c0.9-0.2,2-0.8,3.1-1.9c-2.6-0.2-5.4-0.3-8.6-0.3
					C48.6,72.6,48,72.6,47.3,72.7"/>
				<g class="st8">
					<g>
						<defs>
							<rect id="SVGID_59_" x="47.3" y="72.6" width="10.6" height="2.4"/>
						</defs>
						<clipPath id="SVGID_60_">
							<use xlink:href="#SVGID_59_"  style="overflow:visible;"/>
						</clipPath>
						<path class="st40" d="M47.3,72.7c1.9,1.8,4.5,2.8,7.5,2.1c0.9-0.2,2-0.8,3.1-1.9c-2.6-0.2-5.4-0.3-8.6-0.3
							C48.6,72.6,48,72.6,47.3,72.7"/>
					</g>
				</g>
				<path class="st3" d="M67.1,74.9c-0.2,0-0.3,0-0.4,0.1l0,6.6h2.4c0.7-1.4,1.6-2.8,2.6-4C70.5,76.4,68.9,75.6,67.1,74.9"/>
				<g class="st8">
					<g>
						<defs>
							<rect id="SVGID_61_" x="66.7" y="74.9" width="5.1" height="6.6"/>
						</defs>
						<clipPath id="SVGID_62_">
							<use xlink:href="#SVGID_61_"  style="overflow:visible;"/>
						</clipPath>
						<path class="st41" d="M67.1,74.9c-0.2,0-0.3,0-0.4,0.1l0,6.6h2.4c0.7-1.4,1.6-2.8,2.6-4C70.5,76.4,68.9,75.6,67.1,74.9"/>
					</g>
				</g>
				<g class="st8">
					<g>
						<defs>
							<rect id="SVGID_63_" x="66.7" y="74.9" width="5.1" height="6.6"/>
						</defs>
						<clipPath id="SVGID_64_">
							<use xlink:href="#SVGID_63_"  style="overflow:visible;"/>
						</clipPath>
						<path class="st42" d="M67.1,74.9c-0.2,0-0.3,0-0.4,0.1l0,6.6h2.4c0.7-1.4,1.6-2.8,2.6-4C70.5,76.4,68.9,75.6,67.1,74.9"/>
					</g>
				</g>
				<path class="st7" d="M56.6,81.5H66l0-6.5C60.6,75.8,57.9,78.3,56.6,81.5"/>
				<g class="st8">
					<g>
						<defs>
							<rect id="SVGID_65_" x="56.6" y="75" width="9.4" height="6.5"/>
						</defs>
						<clipPath id="SVGID_66_">
							<use xlink:href="#SVGID_65_"  style="overflow:visible;"/>
						</clipPath>
						<path class="st43" d="M56.6,81.5H66l0-6.5C60.6,75.8,57.9,78.3,56.6,81.5"/>
					</g>
				</g>
				<path class="st7" d="M66,75l0,6.5h0.7l0-6.6C66.5,75,66.2,75,66,75"/>
				<g class="st8">
					<g>
						<defs>
							<rect id="SVGID_67_" x="66" y="74.9" width="0.7" height="6.6"/>
						</defs>
						<clipPath id="SVGID_68_">
							<use xlink:href="#SVGID_67_"  style="overflow:visible;"/>
						</clipPath>
						<path class="st44" d="M66,75l0,6.5h0.7l0-6.6C66.5,75,66.2,75,66,75"/>
					</g>
				</g>
				<g class="st8">
					<g>
						<defs>
							<rect id="SVGID_69_" x="56.6" y="74.9" width="10.1" height="6.6"/>
						</defs>
						<clipPath id="SVGID_70_">
							<use xlink:href="#SVGID_69_"  style="overflow:visible;"/>
						</clipPath>
						<path class="st45" d="M66.7,74.9C66.5,75,66.2,75,66,75c-5.4,0.8-8.1,3.2-9.4,6.5H66h0.7L66.7,74.9z"/>
					</g>
				</g>
				<path class="st6" d="M30,81.5h3.8c-0.1-1.5-0.2-2.8-0.3-4C32.2,78.7,31,80,30,81.5"/>
				<g class="st8">
					<g>
						<defs>
							<rect id="SVGID_71_" x="30" y="77.5" width="3.8" height="4"/>
						</defs>
						<clipPath id="SVGID_72_">
							<use xlink:href="#SVGID_71_"  style="overflow:visible;"/>
						</clipPath>
						<path class="st46" d="M30,81.5h3.8c-0.1-1.5-0.2-2.8-0.3-4C32.2,78.7,31,80,30,81.5"/>
					</g>
				</g>
				<g class="st8">
					<g>
						<defs>
							<rect id="SVGID_73_" x="30" y="77.5" width="3.8" height="4"/>
						</defs>
						<clipPath id="SVGID_74_">
							<use xlink:href="#SVGID_73_"  style="overflow:visible;"/>
						</clipPath>
						<path class="st47" d="M30,81.5h3.8c-0.1-1.5-0.2-2.8-0.3-4C32.2,78.7,31,80,30,81.5"/>
					</g>
				</g>
				<polygon class="st48" points="115.4,62.9 115.4,67.1 117.3,68 117.3,63.8 				"/>
				<polygon class="st48" points="35.3,43.5 33.4,44.9 33.4,49.1 35.3,47.7 				"/>
				<polygon class="st48" points="35.3,52.8 33.4,54.3 33.4,58.5 35.3,57.1 				"/>
				<polygon class="st48" points="35.3,62.2 33.4,63.7 33.4,67.9 35.3,66.5 				"/>
				<g class="st8">
					<g>
						<defs>
							<rect id="SVGID_75_" x="90.5" y="72.6" width="2" height="3.7"/>
						</defs>
						<clipPath id="SVGID_76_">
							<use xlink:href="#SVGID_75_"  style="overflow:visible;"/>
						</clipPath>
						<path class="st49" d="M90.5,72.6v3.7c0.6-0.6,1.2-1.1,2-1.5l0-1.8C91.8,72.9,91.2,72.8,90.5,72.6"/>
					</g>
				</g>
				<path class="st3" d="M87.5,70.7c-5.6,0.3-9.8,1.9-12.9,4.2c6.1,0.5,8.7,2.3,9.9,6.6h3.4c0.5-2,1.3-3.8,2.7-5.2v-3.7
					C89.4,72.2,88.4,71.5,87.5,70.7"/>
				<g class="st8">
					<g>
						<defs>
							<rect id="SVGID_77_" x="74.6" y="70.7" width="15.9" height="10.8"/>
						</defs>
						<clipPath id="SVGID_78_">
							<use xlink:href="#SVGID_77_"  style="overflow:visible;"/>
						</clipPath>
						<path class="st50" d="M87.5,70.7c-5.6,0.3-9.8,1.9-12.9,4.2c6.1,0.5,8.7,2.3,9.9,6.6h3.4c0.5-2,1.3-3.8,2.7-5.2v-3.7
							C89.4,72.2,88.4,71.5,87.5,70.7"/>
					</g>
				</g>
				<path class="st4" d="M98.7,71c-0.2,0-0.4,0-0.6-0.1c-1.1,1-2.2,1.7-3.1,1.9C94.2,73,93.3,73,92.6,73l0,1.8
					c1.8-1.1,4.3-1.8,7.6-2C99.6,72.3,99.1,71.7,98.7,71"/>
				<g class="st8">
					<g>
						<defs>
							<rect id="SVGID_79_" x="92.5" y="70.9" width="7.6" height="3.8"/>
						</defs>
						<clipPath id="SVGID_80_">
							<use xlink:href="#SVGID_79_"  style="overflow:visible;"/>
						</clipPath>
						<path class="st51" d="M98.7,71c-0.2,0-0.4,0-0.6-0.1c-1.1,1-2.2,1.7-3.1,1.9C94.2,73,93.3,73,92.6,73l0,1.8
							c1.8-1.1,4.3-1.8,7.6-2C99.6,72.3,99.1,71.7,98.7,71"/>
					</g>
				</g>
				<path class="st4" d="M106.3,72.9c0.5,0,0.9,0.1,1.3,0.1c-0.3-0.1-0.7-0.3-1.1-0.4C106.5,72.7,106.4,72.8,106.3,72.9"/>
				<g class="st8">
					<g>
						<defs>
							<rect id="SVGID_81_" x="106.3" y="72.6" width="1.3" height="0.4"/>
						</defs>
						<clipPath id="SVGID_82_">
							<use xlink:href="#SVGID_81_"  style="overflow:visible;"/>
						</clipPath>
						<path class="st52" d="M106.3,72.9c0.5,0,0.9,0.1,1.3,0.1c-0.3-0.1-0.7-0.3-1.1-0.4C106.5,72.7,106.4,72.8,106.3,72.9"/>
					</g>
				</g>
				<g class="st8">
					<g>
						<defs>
							<rect id="SVGID_83_" x="90.5" y="70.6" width="2.1" height="2.4"/>
						</defs>
						<clipPath id="SVGID_84_">
							<use xlink:href="#SVGID_83_"  style="overflow:visible;"/>
						</clipPath>
						<path class="st53" d="M92.6,73l0-2.3c-0.7,0-1.4,0-2.1,0v1.9C91.2,72.8,91.8,72.9,92.6,73"/>
					</g>
				</g>
				<path class="st54" d="M92.6,73l0-2.3c-0.7,0-1.4,0-2.1,0v1.9C91.2,72.8,91.8,72.9,92.6,73"/>
				<path class="st3" d="M90.5,72.6v-1.9c-0.3,0-0.6,0-1,0c-0.7,0-1.4,0-2,0.1C88.4,71.5,89.4,72.2,90.5,72.6"/>
				<path class="st55" d="M90.5,72.6v-1.9c-0.3,0-0.6,0-1,0c-0.7,0-1.4,0-2,0.1C88.4,71.5,89.4,72.2,90.5,72.6"/>
				<g class="st8">
					<g>
						<defs>
							<rect id="SVGID_85_" x="87.5" y="70.6" width="3" height="2"/>
						</defs>
						<clipPath id="SVGID_86_">
							<use xlink:href="#SVGID_85_"  style="overflow:visible;"/>
						</clipPath>
						<path class="st56" d="M90.5,72.6v-1.9c-0.3,0-0.6,0-1,0c-0.7,0-1.4,0-2,0.1C88.4,71.5,89.4,72.2,90.5,72.6"/>
					</g>
				</g>
				<path class="st4" d="M95.1,72.8c0.9-0.2,2-0.8,3.1-1.9c-1.7-0.2-3.6-0.3-5.6-0.3l0,2.3C93.3,73,94.2,73,95.1,72.8"/>
				<g class="st8">
					<g>
						<defs>
							<rect id="SVGID_87_" x="92.6" y="70.6" width="5.6" height="2.4"/>
						</defs>
						<clipPath id="SVGID_88_">
							<use xlink:href="#SVGID_87_"  style="overflow:visible;"/>
						</clipPath>
						<path class="st57" d="M95.1,72.8c0.9-0.2,2-0.8,3.1-1.9c-1.7-0.2-3.6-0.3-5.6-0.3l0,2.3C93.3,73,94.2,73,95.1,72.8"/>
					</g>
				</g>
				<g class="st8">
					<g>
						<defs>
							<rect id="SVGID_89_" x="92.6" y="70.6" width="5.6" height="2.4"/>
						</defs>
						<clipPath id="SVGID_90_">
							<use xlink:href="#SVGID_89_"  style="overflow:visible;"/>
						</clipPath>
						<path class="st58" d="M95.1,72.8c0.9-0.2,2-0.8,3.1-1.9c-1.7-0.2-3.6-0.3-5.6-0.3l0,2.3C93.3,73,94.2,73,95.1,72.8"/>
					</g>
				</g>
				<path class="st4" d="M100.1,72.8c0.6,0,1.2-0.1,1.8-0.1c1.6,0,3.1,0,4.4,0.1c0.1-0.1,0.2-0.2,0.3-0.3c-2.2-0.8-4.9-1.3-7.9-1.6
					C99.1,71.7,99.6,72.3,100.1,72.8"/>
				<g class="st8">
					<g>
						<defs>
							<rect id="SVGID_91_" x="98.7" y="71" width="7.9" height="1.9"/>
						</defs>
						<clipPath id="SVGID_92_">
							<use xlink:href="#SVGID_91_"  style="overflow:visible;"/>
						</clipPath>
						<path class="st59" d="M100.1,72.8c0.6,0,1.2-0.1,1.8-0.1c1.6,0,3.1,0,4.4,0.1c0.1-0.1,0.2-0.2,0.3-0.3
							c-2.2-0.8-4.9-1.3-7.9-1.6C99.1,71.7,99.6,72.3,100.1,72.8"/>
					</g>
				</g>
				<g class="st8">
					<g>
						<defs>
							<rect id="SVGID_93_" x="87.8" y="74" width="28.5" height="7.5"/>
						</defs>
						<clipPath id="SVGID_94_">
							<use xlink:href="#SVGID_93_"  style="overflow:visible;"/>
						</clipPath>
						<path class="st60" d="M116.3,81.5l-5,0l0.1-6.5c-0.5-0.4-1-0.7-1.6-1v7.5H92.5l0.1-6.8c-0.8,0.5-1.4,1-2,1.6v5.2h-2.7
							c0,0,0,0,0,0L116.3,81.5C116.3,81.5,116.3,81.5,116.3,81.5"/>
					</g>
				</g>
				<path class="st54" d="M92.5,81.5l0.1-6.8c-0.8,0.5-1.4,1-2,1.6v5.2L92.5,81.5z"/>
				<path class="st13" d="M111.3,81.5l0.1-6.5c-0.5-0.4-1-0.7-1.6-1v7.5L111.3,81.5z"/>
				<path class="st3" d="M90.5,81.5v-5.2c-1.4,1.4-2.2,3.2-2.7,5.2H90.5z"/>
				<g class="st8">
					<g>
						<defs>
							<rect id="SVGID_95_" x="87.8" y="76.3" width="2.7" height="5.2"/>
						</defs>
						<clipPath id="SVGID_96_">
							<use xlink:href="#SVGID_95_"  style="overflow:visible;"/>
						</clipPath>
						<path class="st61" d="M90.5,81.5v-5.2c-1.4,1.4-2.2,3.2-2.7,5.2H90.5z"/>
					</g>
				</g>
				<g class="st8">
					<g>
						<defs>
							<rect id="SVGID_97_" x="87.8" y="76.3" width="2.7" height="5.2"/>
						</defs>
						<clipPath id="SVGID_98_">
							<use xlink:href="#SVGID_97_"  style="overflow:visible;"/>
						</clipPath>
						<path class="st62" d="M90.5,81.5v-5.2c-1.4,1.4-2.2,3.2-2.7,5.2H90.5z"/>
					</g>
				</g>
				<path class="st4" d="M106.3,72.9c-0.6,0.6-1.3,0.9-1.8,1c-1.8,0.4-3.3-0.1-4.4-1.1c-3.3,0.2-5.8,0.9-7.6,2l-0.1,6.8h17.3V74
					c-0.7-0.4-1.4-0.7-2.1-1C107.3,73,106.8,72.9,106.3,72.9"/>
				<g class="st8">
					<g>
						<defs>
							<rect id="SVGID_99_" x="92.5" y="72.8" width="17.3" height="8.7"/>
						</defs>
						<clipPath id="SVGID_100_">
							<use xlink:href="#SVGID_99_"  style="overflow:visible;"/>
						</clipPath>
						<path class="st63" d="M106.3,72.9c-0.6,0.6-1.3,0.9-1.8,1c-1.8,0.4-3.3-0.1-4.4-1.1c-3.3,0.2-5.8,0.9-7.6,2l-0.1,6.8h17.3V74
							c-0.7-0.4-1.4-0.7-2.1-1C107.3,73,106.8,72.9,106.3,72.9"/>
					</g>
				</g>
				<path class="st5" d="M116.3,81.5c-1.1-2.8-2.7-4.9-4.9-6.5l-0.1,6.5L116.3,81.5z"/>
				<g class="st8">
					<g>
						<defs>
							<rect id="SVGID_101_" x="111.3" y="75" width="5" height="6.5"/>
						</defs>
						<clipPath id="SVGID_102_">
							<use xlink:href="#SVGID_101_"  style="overflow:visible;"/>
						</clipPath>
						<path class="st64" d="M116.3,81.5c-1.1-2.8-2.7-4.9-4.9-6.5l-0.1,6.5L116.3,81.5z"/>
					</g>
				</g>
				<g class="st8">
					<g>
						<defs>
							<rect id="SVGID_103_" x="111.3" y="75" width="5" height="6.5"/>
						</defs>
						<clipPath id="SVGID_104_">
							<use xlink:href="#SVGID_103_"  style="overflow:visible;"/>
						</clipPath>
						<path class="st65" d="M116.3,81.5c-1.1-2.8-2.7-4.9-4.9-6.5l-0.1,6.5L116.3,81.5z"/>
					</g>
				</g>
				<path class="st4" d="M100.1,72.8c1.1,1,2.6,1.5,4.4,1.1c0.5-0.1,1.1-0.5,1.8-1c-1.3-0.1-2.8-0.1-4.4-0.1
					C101.3,72.7,100.7,72.8,100.1,72.8"/>
				<g class="st8">
					<g>
						<defs>
							<rect id="SVGID_105_" x="100.1" y="72.7" width="6.2" height="1.3"/>
						</defs>
						<clipPath id="SVGID_106_">
							<use xlink:href="#SVGID_105_"  style="overflow:visible;"/>
						</clipPath>
						<path class="st66" d="M100.1,72.8c1.1,1,2.6,1.5,4.4,1.1c0.5-0.1,1.1-0.5,1.8-1c-1.3-0.1-2.8-0.1-4.4-0.1
							C101.3,72.7,100.7,72.8,100.1,72.8"/>
					</g>
				</g>
				<g class="st8">
					<g>
						<defs>
							<rect id="SVGID_107_" x="100.1" y="72.7" width="6.2" height="1.3"/>
						</defs>
						<clipPath id="SVGID_108_">
							<use xlink:href="#SVGID_107_"  style="overflow:visible;"/>
						</clipPath>
						<path class="st67" d="M100.1,72.8c1.1,1,2.6,1.5,4.4,1.1c0.5-0.1,1.1-0.5,1.8-1c-1.3-0.1-2.8-0.1-4.4-0.1
							C101.3,72.7,100.7,72.8,100.1,72.8"/>
					</g>
				</g>
				<path class="st68" d="M107.7,73c-0.4-0.1-0.9-0.1-1.3-0.1c0.1-0.1,0.2-0.2,0.3-0.3c-2.2-0.8-4.9-1.3-7.9-1.6
					c0.4,0.7,0.8,1.3,1.4,1.8c-3.3,0.2-5.8,0.9-7.6,2l-0.1,6.8h17.3V74C109.1,73.7,108.4,73.3,107.7,73"/>
				<path class="st3" d="M74.6,74.9c-1.1,0.8-2,1.7-2.8,2.6c1.4,1.1,2.5,2.4,3.4,4h9.3C83.3,77.2,80.7,75.4,74.6,74.9"/>
				<g class="st8">
					<g>
						<defs>
							<rect id="SVGID_109_" x="71.8" y="74.9" width="12.7" height="6.6"/>
						</defs>
						<clipPath id="SVGID_110_">
							<use xlink:href="#SVGID_109_"  style="overflow:visible;"/>
						</clipPath>
						<path class="st69" d="M74.6,74.9c-1.1,0.8-2,1.7-2.8,2.6c1.4,1.1,2.5,2.4,3.4,4h9.3C83.3,77.2,80.7,75.4,74.6,74.9"/>
					</g>
				</g>
				<g class="st8">
					<g>
						<defs>
							<rect id="SVGID_111_" x="71.8" y="74.9" width="12.7" height="6.6"/>
						</defs>
						<clipPath id="SVGID_112_">
							<use xlink:href="#SVGID_111_"  style="overflow:visible;"/>
						</clipPath>
						<path class="st70" d="M74.6,74.9c-1.1,0.8-2,1.7-2.8,2.6c1.4,1.1,2.5,2.4,3.4,4h9.3C83.3,77.2,80.7,75.4,74.6,74.9"/>
					</g>
				</g>
				<path class="st3" d="M71.8,77.5c-1,1.2-1.9,2.6-2.6,4h6C74.2,79.9,73.1,78.6,71.8,77.5"/>
				<g class="st8">
					<g>
						<defs>
							<rect id="SVGID_113_" x="69.1" y="77.5" width="6" height="4"/>
						</defs>
						<clipPath id="SVGID_114_">
							<use xlink:href="#SVGID_113_"  style="overflow:visible;"/>
						</clipPath>
						<path class="st71" d="M71.8,77.5c-1,1.2-1.9,2.6-2.6,4h6C74.2,79.9,73.1,78.6,71.8,77.5"/>
					</g>
				</g>
				<g class="st8">
					<g>
						<defs>
							<rect id="SVGID_115_" x="69.1" y="77.5" width="6" height="4"/>
						</defs>
						<clipPath id="SVGID_116_">
							<use xlink:href="#SVGID_115_"  style="overflow:visible;"/>
						</clipPath>
						<path class="st72" d="M71.8,77.5c-1,1.2-1.9,2.6-2.6,4h6C74.2,79.9,73.1,78.6,71.8,77.5"/>
					</g>
				</g>
				<g class="st8">
					<g>
						<defs>
							<rect id="SVGID_117_" x="69.1" y="77.5" width="6" height="4"/>
						</defs>
						<clipPath id="SVGID_118_">
							<use xlink:href="#SVGID_117_"  style="overflow:visible;"/>
						</clipPath>
						<path class="st73" d="M71.8,77.5c-1,1.2-1.9,2.6-2.6,4h6C74.2,79.9,73.1,78.6,71.8,77.5"/>
					</g>
				</g>
				<path class="st15" d="M100.1,72.8c1.1,1,2.6,1.5,4.4,1.1c0.5-0.1,1.1-0.5,1.8-1c-1.3-0.1-2.8-0.1-4.4-0.1
					C101.3,72.7,100.7,72.8,100.1,72.8"/>
				<polygon class="st74" points="139.9,32.3 142.7,32.3 142.7,41.4 153.5,41.4 153.5,32.3 156.3,32.3 156.3,53.8 153.5,53.8 
					153.5,44 142.7,44 142.7,53.8 139.9,53.8 				"/>
				<path class="st74" d="M169.9,54.4c-1.5,0-2.8-0.2-4-0.7c-1.2-0.5-2.3-1.2-3.1-2.2c-0.9-1-1.6-2.1-2-3.5c-0.5-1.4-0.7-3-0.7-4.8
					c0-1.8,0.2-3.4,0.7-4.8c0.5-1.4,1.2-2.6,2-3.6c0.9-1,1.9-1.7,3.1-2.2c1.2-0.5,2.5-0.8,4-0.8c1.5,0,2.8,0.2,4,0.7
					c1.2,0.5,2.3,1.2,3.1,2.2c0.9,1,1.5,2.1,2,3.5c0.5,1.4,0.7,3,0.7,4.8c0,1.8-0.2,3.4-0.7,4.8c-0.5,1.4-1.1,2.6-2,3.6
					c-0.9,1-1.9,1.7-3.1,2.2C172.7,54.1,171.4,54.4,169.9,54.4 M169.9,52c1.1,0,2.2-0.2,3-0.6c0.9-0.4,1.6-1,2.2-1.8
					c0.6-0.8,1-1.7,1.3-2.8c0.3-1.1,0.5-2.3,0.5-3.7c0-1.3-0.1-2.5-0.5-3.6c-0.3-1.1-0.7-2-1.3-2.8c-0.6-0.8-1.3-1.4-2.2-1.8
					c-0.9-0.4-1.9-0.6-3-0.6c-1.2,0-2.2,0.2-3.1,0.6c-0.9,0.4-1.6,1-2.2,1.8c-0.6,0.8-1,1.7-1.3,2.8c-0.3,1.1-0.4,2.3-0.4,3.6
					c0,1.3,0.1,2.6,0.4,3.7c0.3,1.1,0.7,2,1.3,2.8c0.6,0.8,1.3,1.4,2.2,1.8C167.7,51.8,168.7,52,169.9,52"/>
				<path class="st74" d="M183.2,32.3h2.8v13c0,2.2,0.4,3.9,1.2,5c0.8,1.1,2.2,1.7,4.1,1.7c1.9,0,3.3-0.6,4.1-1.7
					c0.8-1.1,1.2-2.8,1.2-5v-13h2.8v13c0,1.6-0.2,3-0.6,4.1c-0.4,1.1-0.9,2.1-1.6,2.8c-0.7,0.7-1.5,1.3-2.6,1.6
					c-1,0.3-2.2,0.5-3.4,0.5c-2.6,0-4.6-0.7-6-2.2c-1.4-1.4-2.1-3.8-2.1-7V32.3z"/>
				<path class="st74" d="M205.9,47.7c0.2,1.5,0.8,2.6,1.8,3.3c1,0.7,2.4,1,4.3,1c0.9,0,1.7-0.1,2.4-0.3c0.6-0.2,1.1-0.5,1.5-0.8
					c0.4-0.4,0.7-0.8,0.8-1.2c0.2-0.5,0.2-1,0.2-1.5c0-0.4-0.1-0.8-0.1-1.2c-0.1-0.4-0.3-0.7-0.6-1.1s-0.7-0.6-1.2-0.8
					c-0.5-0.2-1.2-0.4-2-0.6l-2.7-0.5c-1.1-0.2-2-0.4-2.8-0.7c-0.8-0.3-1.5-0.7-2.1-1.2c-0.6-0.5-1-1.1-1.3-1.8
					c-0.3-0.7-0.4-1.6-0.4-2.6c0-1,0.2-1.8,0.6-2.6c0.4-0.7,1-1.4,1.7-1.9c0.7-0.5,1.5-0.9,2.5-1.1c1-0.2,2-0.4,3.1-0.4
					c1.4,0,2.6,0.2,3.6,0.5c1,0.3,1.7,0.7,2.3,1.2c0.6,0.5,1.1,1.1,1.4,1.8c0.3,0.7,0.5,1.4,0.7,2.1l-2.6,0.5
					c-0.2-0.6-0.4-1.1-0.6-1.6c-0.3-0.5-0.6-0.9-1-1.2c-0.4-0.3-0.9-0.5-1.5-0.7c-0.6-0.2-1.3-0.2-2.2-0.2c-1,0-1.8,0.1-2.5,0.3
					c-0.7,0.2-1.2,0.4-1.6,0.7c-0.4,0.3-0.7,0.7-0.9,1.1c-0.2,0.4-0.3,0.9-0.3,1.4c0,0.5,0.1,1,0.2,1.4c0.1,0.4,0.4,0.7,0.7,1
					c0.3,0.3,0.7,0.5,1.2,0.7c0.5,0.2,1.1,0.4,1.9,0.5l3,0.5c2.2,0.4,3.9,1.1,4.9,2.1c1,1,1.6,2.4,1.6,4.3c0,0.9-0.2,1.7-0.5,2.4
					c-0.3,0.8-0.8,1.4-1.5,2c-0.7,0.6-1.5,1-2.5,1.3c-1,0.3-2.1,0.5-3.5,0.5c-1.3,0-2.4-0.1-3.5-0.4c-1-0.3-1.9-0.6-2.7-1.2
					c-0.8-0.5-1.4-1.2-1.8-2.1c-0.5-0.8-0.7-1.9-0.8-3H205.9z"/>
				<rect x="224" y="32.3" class="st74" width="2.8" height="21.5"/>
				<polygon class="st74" points="231.2,32.3 233.9,32.3 244.9,49.4 244.9,32.3 247.5,32.3 247.5,53.8 244.9,53.8 233.9,36.9 
					233.9,53.8 231.2,53.8 				"/>
				<path class="st74" d="M261.4,42.8h8v8.6c-0.5,0.5-1.1,0.9-1.8,1.3c-0.7,0.4-1.3,0.7-2,0.9c-0.7,0.3-1.4,0.4-2.2,0.6
					c-0.8,0.1-1.5,0.2-2.2,0.2c-1.6,0-3-0.3-4.2-0.8c-1.2-0.5-2.3-1.2-3.1-2.2c-0.9-1-1.5-2.1-1.9-3.5c-0.4-1.4-0.7-3-0.7-4.7
					c0-1.8,0.2-3.4,0.7-4.8c0.5-1.4,1.1-2.6,2-3.6s1.9-1.7,3.1-2.2c1.2-0.5,2.5-0.8,3.9-0.8c1.2,0,2.3,0.1,3.2,0.4
					c0.9,0.3,1.7,0.7,2.4,1.3c0.7,0.5,1.2,1.2,1.6,2c0.4,0.8,0.7,1.6,1,2.5l-2.7,0.5c-0.2-0.6-0.4-1.2-0.6-1.7s-0.6-1-1-1.3
					c-0.4-0.4-0.9-0.7-1.6-0.9c-0.6-0.2-1.3-0.3-2.2-0.3c-1.1,0-2.1,0.2-3,0.6c-0.8,0.4-1.5,1-2.1,1.8c-0.6,0.8-1,1.7-1.3,2.8
					c-0.3,1.1-0.4,2.3-0.4,3.6c0,1.3,0.1,2.5,0.4,3.6c0.3,1.1,0.7,2,1.3,2.8c0.6,0.8,1.3,1.4,2.2,1.8c0.9,0.4,1.9,0.6,3.1,0.6
					c1.1,0,2.1-0.1,3.1-0.4s1.8-0.7,2.6-1.2v-5.1h-5.4V42.8z"/>
				<polygon class="st75" points="139.9,60.5 143.3,60.5 150.3,78.7 157.3,60.5 160.6,60.5 160.6,82 158.1,82 158.1,65 151.3,82 
					149.1,82 142.4,65.1 142.4,82 139.9,82 				"/>
				<path class="st75" d="M170.8,60.5h2.9L182,82h-3l-2.3-6h-9.2l-2.3,6h-2.9L170.8,60.5z M175.9,73.6l-3.8-10l-3.7,10H175.9z"/>
				<polygon class="st75" points="186.7,62.9 179.6,62.9 179.6,60.5 196.6,60.5 196.6,62.9 189.5,62.9 189.5,82 186.7,82 				"/>
				<polygon class="st75" points="205.5,62.9 198.4,62.9 198.4,60.5 215.4,60.5 215.4,62.9 208.3,62.9 208.3,82 205.5,82 				"/>
				<polygon class="st75" points="218,60.5 231.9,60.5 231.9,62.9 220.8,62.9 220.8,69.7 231.3,69.7 231.3,72.1 220.8,72.1 
					220.8,79.6 232.5,79.6 232.1,82 218,82 				"/>
				<path class="st75" d="M235.6,60.5h7c1.6,0,2.9,0.2,3.9,0.5c1,0.4,1.8,0.8,2.4,1.4c0.6,0.6,1,1.2,1.2,1.9
					c0.2,0.7,0.3,1.5,0.3,2.2c0,1.4-0.3,2.5-0.9,3.5c-0.6,1-1.5,1.7-2.8,2.3l4.5,9.7h-3.1l-4.1-9c-0.3,0-0.5,0.1-0.8,0.1
					c-0.3,0-0.6,0-0.8,0h-4.2V82h-2.7V60.5z M242.9,70.7c1,0,1.8-0.1,2.4-0.3c0.6-0.2,1.1-0.5,1.5-0.8c0.4-0.3,0.6-0.8,0.8-1.3
					c0.1-0.5,0.2-1.1,0.2-1.7c0-0.6-0.1-1.1-0.2-1.6c-0.2-0.5-0.4-0.9-0.8-1.2c-0.4-0.3-0.9-0.6-1.6-0.8c-0.7-0.2-1.5-0.3-2.5-0.3
					h-4.2v7.8H242.9z"/>
				<path class="st75" d="M255.9,75.8c0.2,1.5,0.8,2.6,1.8,3.3c1,0.7,2.4,1,4.3,1c0.9,0,1.7-0.1,2.4-0.3c0.6-0.2,1.1-0.5,1.5-0.8
					c0.4-0.4,0.7-0.8,0.8-1.2c0.2-0.5,0.2-1,0.2-1.5c0-0.4-0.1-0.8-0.1-1.2c-0.1-0.4-0.3-0.7-0.6-1.1s-0.7-0.6-1.2-0.8
					c-0.5-0.2-1.2-0.4-2-0.6l-2.7-0.5c-1.1-0.2-2-0.4-2.8-0.7c-0.8-0.3-1.5-0.7-2.1-1.2c-0.6-0.5-1-1.1-1.3-1.8
					c-0.3-0.7-0.4-1.6-0.4-2.6c0-1,0.2-1.8,0.6-2.6c0.4-0.7,1-1.4,1.7-1.9c0.7-0.5,1.5-0.9,2.5-1.1c1-0.2,2-0.4,3.1-0.4
					c1.4,0,2.6,0.2,3.6,0.5c1,0.3,1.7,0.7,2.3,1.2c0.6,0.5,1.1,1.1,1.4,1.8c0.3,0.7,0.5,1.4,0.7,2.1l-2.6,0.5
					c-0.2-0.6-0.4-1.1-0.6-1.6c-0.3-0.5-0.6-0.9-1-1.2c-0.4-0.3-0.9-0.5-1.5-0.7c-0.6-0.2-1.3-0.2-2.2-0.2c-1,0-1.8,0.1-2.5,0.3
					s-1.2,0.4-1.6,0.7c-0.4,0.3-0.7,0.7-0.9,1.1c-0.2,0.4-0.3,0.9-0.3,1.4c0,0.5,0.1,1,0.2,1.4c0.1,0.4,0.4,0.7,0.7,1
					c0.3,0.3,0.7,0.5,1.2,0.7c0.5,0.2,1.1,0.4,1.9,0.5l3,0.5c2.2,0.4,3.9,1.1,4.9,2.1c1,1,1.6,2.4,1.6,4.3c0,0.9-0.2,1.7-0.5,2.4
					c-0.3,0.8-0.8,1.4-1.5,2c-0.7,0.6-1.5,1-2.5,1.3c-1,0.3-2.1,0.5-3.5,0.5c-1.3,0-2.4-0.1-3.5-0.4c-1-0.3-1.9-0.7-2.7-1.2
					c-0.8-0.5-1.4-1.2-1.8-2.1c-0.5-0.8-0.7-1.9-0.8-3H255.9z"/>
				<polygon class="st76" points="139.9,8.9 141.3,8.9 141.3,16.6 151.2,16.6 151.2,8.9 152.7,8.9 152.7,26.3 151.2,26.3 151.2,18 
					141.3,18 141.3,26.3 139.9,26.3 				"/>
				<path class="st76" d="M165.7,26.8c-1.1,0-2.2-0.2-3.1-0.6c-1-0.4-1.8-1-2.5-1.7c-0.7-0.8-1.2-1.7-1.6-2.9
					c-0.4-1.1-0.6-2.5-0.6-4s0.2-2.8,0.6-4c0.4-1.1,1-2.1,1.7-2.9c0.7-0.8,1.5-1.4,2.5-1.8c1-0.4,2-0.6,3.1-0.6
					c1.1,0,2.2,0.2,3.1,0.6c1,0.4,1.8,1,2.5,1.7c0.7,0.8,1.2,1.7,1.6,2.8c0.4,1.1,0.6,2.4,0.6,3.9c0,1.5-0.2,2.8-0.6,4
					c-0.4,1.1-0.9,2.1-1.6,2.9c-0.7,0.8-1.5,1.4-2.5,1.8C167.9,26.6,166.8,26.8,165.7,26.8 M165.7,25.5c1,0,1.9-0.2,2.7-0.6
					c0.8-0.4,1.4-0.9,2-1.6c0.5-0.7,0.9-1.5,1.2-2.5c0.3-1,0.4-2,0.4-3.2s-0.1-2.2-0.4-3.2c-0.3-1-0.7-1.8-1.2-2.5
					c-0.5-0.7-1.2-1.2-2-1.6c-0.8-0.4-1.7-0.6-2.7-0.6c-1.1,0-2,0.2-2.8,0.6c-0.8,0.4-1.4,0.9-2,1.6c-0.5,0.7-0.9,1.5-1.2,2.5
					s-0.4,2-0.4,3.2s0.1,2.2,0.4,3.2c0.3,1,0.7,1.8,1.2,2.5c0.5,0.7,1.2,1.2,2,1.6C163.7,25.3,164.6,25.5,165.7,25.5"/>
				<polygon class="st76" points="175.9,8.9 177.6,8.9 181.7,24.5 186,9 187.6,9 191.8,24.5 196,8.9 197.6,8.9 192.6,26.3 
					190.9,26.3 186.7,10.8 182.5,26.3 180.9,26.3 				"/>
			</g>
		</g>
	</g>
</g>
</svg>
