<?xml version="1.0" encoding="utf-8"?>
<!-- Generator: Adobe Illustrator 21.1.0, SVG Export Plug-In . SVG Version: 6.00 Build 0)  -->
<svg version="1.1" id="Layer_1" xmlns="http://www.w3.org/2000/svg" xmlns:xlink="http://www.w3.org/1999/xlink" x="0px" y="0px"
	 viewBox="0 0 300 110" style="enable-background:new 0 0 300 110;" xml:space="preserve">
<style type="text/css">
	.st0{fill:#FFFFFF;}
	.st1{clip-path:url(#SVGID_2_);}
	.st2{clip-path:url(#SVGID_4_);}
	.st3{clip-path:url(#SVGID_6_);fill:#A1D2CE;}
	.st4{clip-path:url(#SVGID_6_);fill:#FAAF42;}
	.st5{clip-path:url(#SVGID_6_);fill:#FFDD77;}
	.st6{clip-path:url(#SVGID_6_);fill:#BFC949;}
	.st7{clip-path:url(#SVGID_6_);fill:#00ABBE;}
	.st8{clip-path:url(#SVGID_6_);}
	.st9{clip-path:url(#SVGID_8_);fill:#ADA434;}
	.st10{clip-path:url(#SVGID_10_);fill:#ADA434;}
	.st11{clip-path:url(#SVGID_12_);fill:#ADA434;}
	.st12{clip-path:url(#SVGID_14_);fill:#018DB3;}
	.st13{clip-path:url(#SVGID_6_);fill:#F47C4B;}
	.st14{clip-path:url(#SVGID_16_);fill:#ADA434;}
	.st15{clip-path:url(#SVGID_6_);fill:#8C4D33;}
	.st16{clip-path:url(#SVGID_18_);fill:#FFFFFF;}
	.st17{clip-path:url(#SVGID_20_);fill:#FFFFFF;}
	.st18{clip-path:url(#SVGID_22_);fill:#FFFFFF;}
	.st19{clip-path:url(#SVGID_6_);fill:#77BAB5;}
	.st20{clip-path:url(#SVGID_24_);fill:#018DB3;}
	.st21{clip-path:url(#SVGID_6_);fill:#73BBC5;}
	.st22{clip-path:url(#SVGID_26_);fill:#FFFFFF;}
	.st23{clip-path:url(#SVGID_28_);fill:#FFFFFF;}
	.st24{clip-path:url(#SVGID_30_);fill:#BFC949;}
	.st25{clip-path:url(#SVGID_6_);fill:#018DB3;}
	.st26{clip-path:url(#SVGID_32_);fill:#018DB3;}
	.st27{clip-path:url(#SVGID_34_);fill:#BFC949;}
	.st28{clip-path:url(#SVGID_36_);fill:#018DB3;}
	.st29{clip-path:url(#SVGID_38_);fill:#FFFFFF;}
	.st30{clip-path:url(#SVGID_40_);fill:#FFFFFF;}
	.st31{clip-path:url(#SVGID_42_);fill:#FFFFFF;}
	.st32{clip-path:url(#SVGID_44_);fill:#FFFFFF;}
	.st33{clip-path:url(#SVGID_46_);fill:#018DB3;}
	.st34{clip-path:url(#SVGID_48_);fill:#018DB3;}
	.st35{clip-path:url(#SVGID_50_);fill:#ADA434;}
	.st36{clip-path:url(#SVGID_52_);fill:#ADA434;}
	.st37{clip-path:url(#SVGID_54_);fill:#ADA434;}
	.st38{clip-path:url(#SVGID_56_);fill:#018DB3;}
	.st39{clip-path:url(#SVGID_58_);fill:#ADA434;}
	.st40{clip-path:url(#SVGID_60_);fill:#0E5367;}
	.st41{clip-path:url(#SVGID_62_);fill:#FFFFFF;}
	.st42{clip-path:url(#SVGID_64_);fill:#ADA434;}
	.st43{clip-path:url(#SVGID_66_);fill:#FFFFFF;}
	.st44{clip-path:url(#SVGID_68_);fill:#FFFFFF;}
	.st45{clip-path:url(#SVGID_70_);fill:#006838;}
	.st46{clip-path:url(#SVGID_72_);fill:#FFFFFF;}
	.st47{clip-path:url(#SVGID_74_);fill:#778828;}
	.st48{clip-path:url(#SVGID_6_);fill:#FFFFFF;}
	.st49{clip-path:url(#SVGID_76_);fill:#ADA434;}
	.st50{clip-path:url(#SVGID_78_);fill:#ADA434;}
	.st51{clip-path:url(#SVGID_80_);fill:#ADA434;}
	.st52{clip-path:url(#SVGID_82_);fill:#ADA434;}
	.st53{clip-path:url(#SVGID_84_);fill:#ADA434;}
	.st54{clip-path:url(#SVGID_6_);fill:#778828;}
	.st55{clip-path:url(#SVGID_6_);fill:#ADA434;}
	.st56{clip-path:url(#SVGID_86_);fill:#778828;}
	.st57{clip-path:url(#SVGID_88_);fill:#ADA434;}
	.st58{clip-path:url(#SVGID_90_);fill:#ADA434;}
	.st59{clip-path:url(#SVGID_92_);fill:#FFFFFF;}
	.st60{clip-path:url(#SVGID_94_);fill:#FFFFFF;}
	.st61{clip-path:url(#SVGID_96_);fill:#FFFFFF;}
	.st62{clip-path:url(#SVGID_98_);fill:#778828;}
	.st63{clip-path:url(#SVGID_100_);fill:#FFFFFF;}
	.st64{clip-path:url(#SVGID_102_);fill:#FFFFFF;}
	.st65{clip-path:url(#SVGID_104_);fill:#D48668;}
	.st66{clip-path:url(#SVGID_106_);fill:#FFFFFF;}
	.st67{clip-path:url(#SVGID_108_);fill:#FFFFFF;}
	.st68{clip-path:url(#SVGID_6_);fill:#B35E3D;}
	.st69{clip-path:url(#SVGID_110_);fill:#FFFFFF;}
	.st70{clip-path:url(#SVGID_112_);fill:#778828;}
	.st71{clip-path:url(#SVGID_114_);fill:#FFFFFF;}
	.st72{clip-path:url(#SVGID_116_);fill:#ADA434;}
	.st73{clip-path:url(#SVGID_118_);fill:#ADA434;}
	.st74{clip-path:url(#SVGID_6_);fill:#03A8B8;}
	.st75{clip-path:url(#SVGID_6_);fill:#B7C646;}
	.st76{clip-path:url(#SVGID_6_);fill:#93CEC9;}
</style>
<rect class="st0" width="300" height="110"/>
<g id="HHM_logo_vector">
	<g>
		<defs>
			<rect id="SVGID_1_" x="19.5" y="19.5" width="259.8" height="75.5"/>
		</defs>
		<clipPath id="SVGID_2_">
			<use xlink:href="#SVGID_1_"  style="overflow:visible;"/>
		</clipPath>
		<g class="st1">
			<defs>
				<rect id="SVGID_3_" x="19.5" y="19.5" width="259.8" height="75.5"/>
			</defs>
			<clipPath id="SVGID_4_">
				<use xlink:href="#SVGID_3_"  style="overflow:visible;"/>
			</clipPath>
			<g class="st2">
				<defs>
					<rect id="SVGID_5_" x="19.5" y="19.5" width="259.8" height="75.5"/>
				</defs>
				<clipPath id="SVGID_6_">
					<use xlink:href="#SVGID_5_"  style="overflow:visible;"/>
				</clipPath>
				<path class="st3" d="M81.1,72.7c4.2,0,6.1,3.1,6.1,7.5c0,3.1-1.6,5.8-3.2,7.2c0,0,0.1,0,0.1,0c3.1-2.3,7.3-3.9,12.9-4.2
					c-2.2-2.2-3.5-5.6-3.5-9.5c0-6,1.8-11.8,6.5-13.4V36.9L76,19.7l0.1,56.7C77,74.2,78.6,72.7,81.1,72.7 M83.8,61.6l-2.5-1.5v-5.6
					l2.5,1.5V61.6z M83.8,33.5l0,5.6l-2.5-1.5l0-5.6L83.8,33.5z M83.8,44.7v5.6l-2.5-1.5v-5.6L83.8,44.7z"/>
				<path class="st3" d="M76.2,85.1l0,2.1c0.1,0.1,0.3,0.1,0.4,0.2c0.4,0,0.7-0.1,1.1-0.1C77.1,86.7,76.6,86,76.2,85.1"/>
				<polygon class="st3" points="75.7,19.5 75.7,19.7 75.9,19.6 				"/>
				<path class="st4" d="M108,83.1c-0.1,0.1-0.2,0.2-0.4,0.4c0.2,0,0.4,0,0.6,0.1C108.2,83.4,108.1,83.2,108,83.1"/>
				<path class="st4" d="M112.6,70.7c0.1,0,0.2,0,0.4,0c4.2,0,6.1,3.1,6.1,7.5c0,2.9-1.5,5.5-3,6.9c0.4,0.1,0.7,0.3,1.1,0.4
					c0.8,0.1,1.5,0.2,2.1,0.4v-25l-16.9-12.1l-0.1,11.1c0.2,0,0.3,0,0.5,0C109.2,59.8,112.3,64.3,112.6,70.7"/>
				<path class="st5" d="M132,75.7l-10.9-7.8l-0.2,18.5c3.3,1.2,4.8,3.6,5.3,7.7l5.8,0V75.7z M124.9,79.6v-4.2l1.9,0.9l0,4.2
					L124.9,79.6z"/>
				<path class="st6" d="M35.9,74.3c0,3.1-1.6,5.8-3.2,7.2c7,0.5,9.5,2.8,10.4,8.5c1.8-1.5,3.9-2.7,6.5-3.6l-0.4-39.6L32.3,58.9v8.3
					C34.8,68.3,35.9,70.9,35.9,74.3 M42.9,57.4l1.9-1.4v4.2l-1.9,1.4L42.9,57.4z M42.9,66.8l1.9-1.4v4.2L42.9,71L42.9,66.8z
					 M42.9,76.2l1.9-1.4V79l-1.9,1.4V76.2z"/>
				<path class="st7" d="M24.1,75.4c0-1.1,0.1-2.2,0.3-3.2l-4.9,3.5v7.4c1.8-0.9,4-1.4,7-1.6C24.9,80.1,24.1,77.9,24.1,75.4"/>
				<polygon class="st7" points="76,19.5 75.9,19.6 76,19.7 				"/>
				<path class="st7" d="M76.2,76.4L76,19.7l-0.2-0.1l-0.2,0.1l-24,17.2v49c1.5-0.3,3.2-0.6,5.1-0.7c-2.2-2.2-3.5-5.6-3.5-9.5
					c0-7.1,2.5-13.9,9.3-13.9s9.8,5.1,9.8,12.2c0,4.9-2.5,9.1-5,11.5c3.1,0.3,5.8,0.8,8.1,1.5l0-4c-0.1-0.5-0.1-1.1-0.1-1.7
					c0-0.8,0.1-1.5,0.2-2.3C75.7,78,75.9,77.2,76.2,76.4"/>
				<path class="st7" d="M76.2,85.1c-0.3-0.7-0.5-1.4-0.7-2.2l0,4c0.2,0.1,0.5,0.2,0.7,0.2L76.2,85.1z"/>
				<g class="st8">
					<g>
						<defs>
							<rect id="SVGID_7_" x="100" y="59.9" width="2.3" height="23.3"/>
						</defs>
						<clipPath id="SVGID_8_">
							<use xlink:href="#SVGID_7_"  style="overflow:visible;"/>
						</clipPath>
						<path class="st9" d="M102.1,83.1l0.2-23.3c-0.8,0-1.6,0.2-2.3,0.4v22.8C100.7,83.1,101.4,83.1,102.1,83.1"/>
					</g>
				</g>
				<path class="st3" d="M93.5,73.7c0,3.8,1.3,7.3,3.5,9.5c0.7,0,1.3-0.1,2-0.1c0.3,0,0.6,0,1,0V60.3C95.3,61.9,93.5,67.7,93.5,73.7
					"/>
				<g class="st8">
					<g>
						<defs>
							<rect id="SVGID_9_" x="93.5" y="60.3" width="6.5" height="22.9"/>
						</defs>
						<clipPath id="SVGID_10_">
							<use xlink:href="#SVGID_9_"  style="overflow:visible;"/>
						</clipPath>
						<path class="st10" d="M93.5,73.7c0,3.8,1.3,7.3,3.5,9.5c0.7,0,1.3-0.1,2-0.1c0.3,0,0.6,0,1,0V60.3
							C95.3,61.9,93.5,67.7,93.5,73.7"/>
					</g>
				</g>
				<path class="st4" d="M107.7,83.4c0.1-0.1,0.2-0.2,0.4-0.4c-0.5-1.1-0.8-2.4-0.8-3.8c0-4.2,1.5-8.3,5.4-8.6
					c-0.4-6.4-3.4-10.9-9.8-10.9c-0.2,0-0.4,0-0.5,0l-0.2,23.3C104.1,83.2,105.9,83.3,107.7,83.4"/>
				<g class="st8">
					<g>
						<defs>
							<rect id="SVGID_11_" x="102.1" y="59.8" width="10.6" height="23.6"/>
						</defs>
						<clipPath id="SVGID_12_">
							<use xlink:href="#SVGID_11_"  style="overflow:visible;"/>
						</clipPath>
						<path class="st11" d="M107.7,83.4c0.1-0.1,0.2-0.2,0.4-0.4c-0.5-1.1-0.8-2.4-0.8-3.8c0-4.2,1.5-8.3,5.4-8.6
							c-0.4-6.4-3.4-10.9-9.8-10.9c-0.2,0-0.4,0-0.5,0l-0.2,23.3C104.1,83.2,105.9,83.3,107.7,83.4"/>
					</g>
				</g>
				<path class="st7" d="M72.4,74c0-7.1-3-12.2-9.8-12.2c-6.8,0-9.3,6.8-9.3,13.9c0,3.8,1.3,7.3,3.5,9.5c0.7,0,1.3-0.1,2-0.1
					c3.2,0,6,0.1,8.6,0.3C69.9,83.1,72.4,78.9,72.4,74"/>
				<g class="st8">
					<g>
						<defs>
							<rect id="SVGID_13_" x="53.3" y="61.8" width="19.1" height="23.6"/>
						</defs>
						<clipPath id="SVGID_14_">
							<use xlink:href="#SVGID_13_"  style="overflow:visible;"/>
						</clipPath>
						<path class="st12" d="M72.4,74c0-7.1-3-12.2-9.8-12.2c-6.8,0-9.3,6.8-9.3,13.9c0,3.8,1.3,7.3,3.5,9.5c0.7,0,1.3-0.1,2-0.1
							c3.2,0,6,0.1,8.6,0.3C69.9,83.1,72.4,78.9,72.4,74"/>
					</g>
				</g>
				<path class="st4" d="M116.1,85.1c1.5-1.5,3-4,3-6.9c0-4.4-1.9-7.5-6.1-7.5c-0.1,0-0.2,0-0.4,0c0,0.4,0,0.9,0,1.3
					c0,4.7-2.3,8.7-4.6,11.1c0.1,0.1,0.1,0.3,0.2,0.4C111.3,83.8,113.9,84.3,116.1,85.1"/>
				<path class="st13" d="M116.1,85.1c1.5-1.5,3-4,3-6.9c0-4.4-1.9-7.5-6.1-7.5c-0.1,0-0.2,0-0.4,0c0,0.4,0,0.9,0,1.3
					c0,4.7-2.3,8.7-4.6,11.1c0.1,0.1,0.1,0.3,0.2,0.4C111.3,83.8,113.9,84.3,116.1,85.1"/>
				<path class="st4" d="M112.6,70.7c-3.9,0.2-5.4,4.3-5.4,8.6c0,1.4,0.3,2.7,0.8,3.8c2.4-2.4,4.6-6.4,4.6-11.1
					C112.7,71.5,112.7,71.1,112.6,70.7"/>
				<g class="st8">
					<g>
						<defs>
							<rect id="SVGID_15_" x="107.3" y="70.7" width="5.4" height="12.4"/>
						</defs>
						<clipPath id="SVGID_16_">
							<use xlink:href="#SVGID_15_"  style="overflow:visible;"/>
						</clipPath>
						<path class="st14" d="M112.6,70.7c-3.9,0.2-5.4,4.3-5.4,8.6c0,1.4,0.3,2.7,0.8,3.8c2.4-2.4,4.6-6.4,4.6-11.1
							C112.7,71.5,112.7,71.1,112.6,70.7"/>
					</g>
				</g>
				<path class="st15" d="M112.6,70.7c-3.9,0.2-5.4,4.3-5.4,8.6c0,1.4,0.3,2.7,0.8,3.8c2.4-2.4,4.6-6.4,4.6-11.1
					C112.7,71.5,112.7,71.1,112.6,70.7"/>
				<g class="st8">
					<g>
						<defs>
							<rect id="SVGID_17_" x="119.3" y="85.9" width="1.6" height="1.7"/>
						</defs>
						<clipPath id="SVGID_18_">
							<use xlink:href="#SVGID_17_"  style="overflow:visible;"/>
						</clipPath>
						<path class="st16" d="M120.9,87.5l0-1.2c-0.5-0.2-1-0.3-1.6-0.5v0.7C119.8,86.8,120.4,87.2,120.9,87.5"/>
					</g>
				</g>
				<path class="st4" d="M119.3,86.5v-0.7c-0.6-0.1-1.4-0.3-2.1-0.3C117.9,85.8,118.6,86.1,119.3,86.5"/>
				<g class="st8">
					<g>
						<defs>
							<rect id="SVGID_19_" x="117.2" y="85.5" width="2.1" height="1"/>
						</defs>
						<clipPath id="SVGID_20_">
							<use xlink:href="#SVGID_19_"  style="overflow:visible;"/>
						</clipPath>
						<path class="st17" d="M119.3,86.5v-0.7c-0.6-0.1-1.4-0.3-2.1-0.3C117.9,85.8,118.6,86.1,119.3,86.5"/>
					</g>
				</g>
				<path class="st5" d="M120.9,86.3l0,1.2c2.2,1.6,3.8,3.7,4.9,6.5h0.4C125.6,89.9,124.2,87.5,120.9,86.3"/>
				<g class="st8">
					<g>
						<defs>
							<rect id="SVGID_21_" x="120.9" y="86.3" width="5.4" height="7.7"/>
						</defs>
						<clipPath id="SVGID_22_">
							<use xlink:href="#SVGID_21_"  style="overflow:visible;"/>
						</clipPath>
						<path class="st18" d="M120.9,86.3l0,1.2c2.2,1.6,3.8,3.7,4.9,6.5h0.4C125.6,89.9,124.2,87.5,120.9,86.3"/>
					</g>
				</g>
				<path class="st3" d="M77.8,87.3c0.6,0,1.2-0.1,1.8-0.1c1.6,0,3.1,0,4.4,0.1c1.6-1.4,3.2-4.1,3.2-7.2c0-4.4-1.9-7.5-6.1-7.5
					c-2.6,0-4.1,1.6-5,3.8l0,8.7C76.6,86,77.1,86.7,77.8,87.3"/>
				<path class="st19" d="M77.8,87.3c0.6,0,1.2-0.1,1.8-0.1c1.6,0,3.1,0,4.4,0.1c1.6-1.4,3.2-4.1,3.2-7.2c0-4.4-1.9-7.5-6.1-7.5
					c-2.6,0-4.1,1.6-5,3.8l0,8.7C76.6,86,77.1,86.7,77.8,87.3"/>
				<path class="st7" d="M75.4,81.2c0,0.6,0,1.1,0.1,1.7l0-4C75.4,79.7,75.4,80.5,75.4,81.2"/>
				<path class="st7" d="M76.2,76.4c-0.3,0.8-0.5,1.6-0.6,2.5l0,4c0.1,0.8,0.4,1.5,0.7,2.2L76.2,76.4z"/>
				<g class="st8">
					<g>
						<defs>
							<rect id="SVGID_23_" x="75.4" y="76.4" width="0.8" height="8.7"/>
						</defs>
						<clipPath id="SVGID_24_">
							<use xlink:href="#SVGID_23_"  style="overflow:visible;"/>
						</clipPath>
						<path class="st20" d="M76.2,76.4c-0.3,0.8-0.5,1.6-0.6,2.5c-0.1,0.7-0.2,1.5-0.2,2.3c0,0.6,0.1,1.1,0.1,1.7
							c0.1,0.8,0.4,1.5,0.7,2.2L76.2,76.4z"/>
					</g>
				</g>
				<path class="st3" d="M77.8,87.3c-0.4,0-0.8,0-1.1,0.1c1.8,0.7,3.3,1.6,4.6,2.6c0.8-1,1.8-1.8,2.8-2.6c0,0-0.1,0-0.1,0
					c-0.6,0.6-1.3,0.9-1.8,1C80.4,88.8,78.9,88.3,77.8,87.3"/>
				<path class="st21" d="M77.8,87.3c-0.4,0-0.8,0-1.1,0.1c1.8,0.7,3.3,1.6,4.6,2.6c0.8-1,1.8-1.8,2.8-2.6c0,0-0.1,0-0.1,0
					c-0.6,0.6-1.3,0.9-1.8,1C80.4,88.8,78.9,88.3,77.8,87.3"/>
				<path class="st3" d="M77.8,87.3c1.1,1,2.6,1.5,4.4,1.1c0.5-0.1,1.1-0.5,1.8-1c-1.3-0.1-2.8-0.1-4.4-0.1
					C78.9,87.2,78.3,87.3,77.8,87.3"/>
				<g class="st8">
					<g>
						<defs>
							<rect id="SVGID_25_" x="77.8" y="87.2" width="6.2" height="1.3"/>
						</defs>
						<clipPath id="SVGID_26_">
							<use xlink:href="#SVGID_25_"  style="overflow:visible;"/>
						</clipPath>
						<path class="st22" d="M77.8,87.3c1.1,1,2.6,1.5,4.4,1.1c0.5-0.1,1.1-0.5,1.8-1c-1.3-0.1-2.8-0.1-4.4-0.1
							C78.9,87.2,78.3,87.3,77.8,87.3"/>
					</g>
				</g>
				<path class="st19" d="M77.8,87.3c1.1,1,2.6,1.5,4.4,1.1c0.5-0.1,1.1-0.5,1.8-1c-1.3-0.1-2.8-0.1-4.4-0.1
					C78.9,87.2,78.3,87.3,77.8,87.3"/>
				<g class="st8">
					<g>
						<defs>
							<rect id="SVGID_27_" x="24.4" y="66.8" width="7.9" height="14.7"/>
						</defs>
						<clipPath id="SVGID_28_">
							<use xlink:href="#SVGID_27_"  style="overflow:visible;"/>
						</clipPath>
						<path class="st23" d="M30.6,81.4c0.6,0,1.1,0.1,1.7,0.1V67.3c-0.7-0.3-1.5-0.4-2.4-0.4c-3.1,0-4.8,2.4-5.4,5.4l6.1-4.3
							L30.6,81.4z"/>
					</g>
				</g>
				<path class="st6" d="M32.7,81.5c1.6-1.4,3.2-4.1,3.2-7.2c0-3.4-1.1-6.1-3.6-7.1v14.2C32.4,81.5,32.5,81.5,32.7,81.5"/>
				<g class="st8">
					<g>
						<defs>
							<rect id="SVGID_29_" x="32.3" y="67.3" width="3.6" height="14.3"/>
						</defs>
						<clipPath id="SVGID_30_">
							<use xlink:href="#SVGID_29_"  style="overflow:visible;"/>
						</clipPath>
						<path class="st24" d="M32.7,81.5c1.6-1.4,3.2-4.1,3.2-7.2c0-3.4-1.1-6.1-3.6-7.1v14.2C32.4,81.5,32.5,81.5,32.7,81.5"/>
					</g>
				</g>
				<path class="st25" d="M26.5,81.5c0.6,0,1.2-0.1,1.8-0.1c0.8,0,1.6,0,2.4,0l-0.2-13.6l-6.1,4.3c-0.2,1-0.3,2.1-0.3,3.2
					C24.1,77.9,24.9,80.2,26.5,81.5"/>
				<g class="st8">
					<g>
						<defs>
							<rect id="SVGID_31_" x="24.1" y="67.9" width="6.5" height="13.6"/>
						</defs>
						<clipPath id="SVGID_32_">
							<use xlink:href="#SVGID_31_"  style="overflow:visible;"/>
						</clipPath>
						<path class="st26" d="M26.5,81.5c0.6,0,1.2-0.1,1.8-0.1c0.8,0,1.6,0,2.4,0l-0.2-13.6l-6.1,4.3c-0.2,1-0.3,2.1-0.3,3.2
							C24.1,77.9,24.9,80.2,26.5,81.5"/>
					</g>
				</g>
				<path class="st6" d="M43,90c-0.8-5.7-3.4-7.9-10.4-8.5c-0.1,0.1-0.3,0.2-0.4,0.3V94h7.3C40.5,92.5,41.7,91.2,43,90"/>
				<g class="st8">
					<g>
						<defs>
							<rect id="SVGID_33_" x="32.3" y="81.5" width="10.8" height="12.5"/>
						</defs>
						<clipPath id="SVGID_34_">
							<use xlink:href="#SVGID_33_"  style="overflow:visible;"/>
						</clipPath>
						<path class="st27" d="M43,90c-0.8-5.7-3.4-7.9-10.4-8.5c-0.1,0.1-0.3,0.2-0.4,0.3V94h7.3C40.5,92.5,41.7,91.2,43,90"/>
					</g>
				</g>
				<path class="st25" d="M30.7,94l-0.1-11.4c-1.7,0.3-3.1-0.2-4.2-1.1c-2.9,0.2-5.2,0.7-7,1.6V94L30.7,94z"/>
				<g class="st8">
					<g>
						<defs>
							<rect id="SVGID_35_" x="19.5" y="81.5" width="11.2" height="12.5"/>
						</defs>
						<clipPath id="SVGID_36_">
							<use xlink:href="#SVGID_35_"  style="overflow:visible;"/>
						</clipPath>
						<path class="st28" d="M30.7,94l-0.1-11.4c-1.7,0.3-3.1-0.2-4.2-1.1c-2.9,0.2-5.2,0.7-7,1.6V94L30.7,94z"/>
					</g>
				</g>
				<g class="st8">
					<g>
						<defs>
							<rect id="SVGID_37_" x="30.6" y="81.4" width="1.7" height="1.2"/>
						</defs>
						<clipPath id="SVGID_38_">
							<use xlink:href="#SVGID_37_"  style="overflow:visible;"/>
						</clipPath>
						<path class="st29" d="M30.6,81.4l0,1.2c0.1,0,0.2,0,0.3,0c0.4-0.1,0.9-0.3,1.4-0.7v-0.4C31.7,81.5,31.2,81.4,30.6,81.4"/>
					</g>
				</g>
				<g class="st8">
					<g>
						<defs>
							<rect id="SVGID_39_" x="30.6" y="81.4" width="1.7" height="1.2"/>
						</defs>
						<clipPath id="SVGID_40_">
							<use xlink:href="#SVGID_39_"  style="overflow:visible;"/>
						</clipPath>
						<path class="st30" d="M30.6,81.4l0,1.2c0.1,0,0.2,0,0.3,0c0.4-0.1,0.9-0.3,1.4-0.7v-0.4C31.7,81.5,31.2,81.4,30.6,81.4"/>
					</g>
				</g>
				<path class="st6" d="M32.3,81.5v0.4c0.1-0.1,0.3-0.2,0.4-0.3C32.5,81.5,32.4,81.5,32.3,81.5"/>
				<g class="st8">
					<g>
						<defs>
							<rect id="SVGID_41_" x="32.3" y="81.5" width="0.4" height="0.4"/>
						</defs>
						<clipPath id="SVGID_42_">
							<use xlink:href="#SVGID_41_"  style="overflow:visible;"/>
						</clipPath>
						<path class="st31" d="M32.3,81.5v0.4c0.1-0.1,0.3-0.2,0.4-0.3C32.5,81.5,32.4,81.5,32.3,81.5"/>
					</g>
				</g>
				<g class="st8">
					<g>
						<defs>
							<rect id="SVGID_43_" x="32.3" y="81.5" width="0.4" height="0.4"/>
						</defs>
						<clipPath id="SVGID_44_">
							<use xlink:href="#SVGID_43_"  style="overflow:visible;"/>
						</clipPath>
						<path class="st32" d="M32.3,81.5v0.4c0.1-0.1,0.3-0.2,0.4-0.3C32.5,81.5,32.4,81.5,32.3,81.5"/>
					</g>
				</g>
				<path class="st25" d="M28.2,81.4c-0.6,0-1.2,0-1.8,0.1c1.1,0.9,2.5,1.4,4.2,1.1l0-1.2C29.9,81.4,29.1,81.4,28.2,81.4"/>
				<g class="st8">
					<g>
						<defs>
							<rect id="SVGID_45_" x="26.5" y="81.4" width="4.2" height="1.3"/>
						</defs>
						<clipPath id="SVGID_46_">
							<use xlink:href="#SVGID_45_"  style="overflow:visible;"/>
						</clipPath>
						<path class="st33" d="M28.2,81.4c-0.6,0-1.2,0-1.8,0.1c1.1,0.9,2.5,1.4,4.2,1.1l0-1.2C29.9,81.4,29.1,81.4,28.2,81.4"/>
					</g>
				</g>
				<g class="st8">
					<g>
						<defs>
							<rect id="SVGID_47_" x="26.5" y="81.4" width="4.2" height="1.3"/>
						</defs>
						<clipPath id="SVGID_48_">
							<use xlink:href="#SVGID_47_"  style="overflow:visible;"/>
						</clipPath>
						<path class="st34" d="M28.2,81.4c-0.6,0-1.2,0-1.8,0.1c1.1,0.9,2.5,1.4,4.2,1.1l0-1.2C29.9,81.4,29.1,81.4,28.2,81.4"/>
					</g>
				</g>
				<g class="st8">
					<g>
						<defs>
							<rect id="SVGID_49_" x="43.4" y="85.9" width="22.7" height="8.2"/>
						</defs>
						<clipPath id="SVGID_50_">
							<use xlink:href="#SVGID_49_"  style="overflow:visible;"/>
						</clipPath>
						<path class="st35" d="M51.7,94v-8.1c-0.8,0.2-1.5,0.4-2.2,0.6l0.1,7.5h-6.2c0,0,0,0,0,0h22.7c0,0,0,0,0,0H51.7z"/>
					</g>
				</g>
				<path class="st3" d="M76.2,87.4c0.1,0,0.3,0,0.4-0.1c-0.1-0.1-0.3-0.1-0.4-0.2V87.4z"/>
				<g class="st8">
					<g>
						<defs>
							<rect id="SVGID_51_" x="76.2" y="87.2" width="0.4" height="0.2"/>
						</defs>
						<clipPath id="SVGID_52_">
							<use xlink:href="#SVGID_51_"  style="overflow:visible;"/>
						</clipPath>
						<path class="st36" d="M76.2,87.4c0.1,0,0.3,0,0.4-0.1c-0.1-0.1-0.3-0.1-0.4-0.2V87.4z"/>
					</g>
				</g>
				<path class="st6" d="M43.4,94h6.2l-0.1-7.5c-2.6,0.8-4.7,2.1-6.5,3.6C43.2,91.2,43.3,92.5,43.4,94"/>
				<g class="st8">
					<g>
						<defs>
							<rect id="SVGID_53_" x="43" y="86.5" width="6.6" height="7.5"/>
						</defs>
						<clipPath id="SVGID_54_">
							<use xlink:href="#SVGID_53_"  style="overflow:visible;"/>
						</clipPath>
						<path class="st37" d="M43.4,94h6.2l-0.1-7.5c-2.6,0.8-4.7,2.1-6.5,3.6C43.2,91.2,43.3,92.5,43.4,94"/>
					</g>
				</g>
				<path class="st7" d="M66.1,94c1.3-3.3,4-5.7,9.4-6.5l0-0.6c-2.3-0.8-5-1.2-8.1-1.5c-1.1,1-2.2,1.7-3.1,1.9
					c-3.1,0.6-5.6-0.3-7.5-2.1c-1.8,0.1-3.5,0.3-5.1,0.7V94H66.1z"/>
				<g class="st8">
					<g>
						<defs>
							<rect id="SVGID_55_" x="51.7" y="85.2" width="23.8" height="8.8"/>
						</defs>
						<clipPath id="SVGID_56_">
							<use xlink:href="#SVGID_55_"  style="overflow:visible;"/>
						</clipPath>
						<path class="st38" d="M66.1,94c1.3-3.3,4-5.7,9.4-6.5l0-0.6c-2.3-0.8-5-1.2-8.1-1.5c-1.1,1-2.2,1.7-3.1,1.9
							c-3.1,0.6-5.6-0.3-7.5-2.1c-1.8,0.1-3.5,0.3-5.1,0.7V94H66.1z"/>
					</g>
				</g>
				<path class="st7" d="M76.2,87.2C76,87.1,75.7,87,75.5,87l0,0.6c0.2,0,0.5-0.1,0.7-0.1V87.2z"/>
				<g class="st8">
					<g>
						<defs>
							<rect id="SVGID_57_" x="75.5" y="87" width="0.7" height="0.6"/>
						</defs>
						<clipPath id="SVGID_58_">
							<use xlink:href="#SVGID_57_"  style="overflow:visible;"/>
						</clipPath>
						<path class="st39" d="M76.2,87.2C76,87.1,75.7,87,75.5,87l0,0.6c0.2,0,0.5-0.1,0.7-0.1V87.2z"/>
					</g>
				</g>
				<path class="st7" d="M56.8,85.2c1.9,1.8,4.5,2.8,7.5,2.1c0.9-0.2,2-0.8,3.1-1.9c-2.6-0.2-5.4-0.3-8.6-0.3
					C58.1,85.1,57.5,85.1,56.8,85.2"/>
				<g class="st8">
					<g>
						<defs>
							<rect id="SVGID_59_" x="56.8" y="85.1" width="10.6" height="2.4"/>
						</defs>
						<clipPath id="SVGID_60_">
							<use xlink:href="#SVGID_59_"  style="overflow:visible;"/>
						</clipPath>
						<path class="st40" d="M56.8,85.2c1.9,1.8,4.5,2.8,7.5,2.1c0.9-0.2,2-0.8,3.1-1.9c-2.6-0.2-5.4-0.3-8.6-0.3
							C58.1,85.1,57.5,85.1,56.8,85.2"/>
					</g>
				</g>
				<path class="st3" d="M76.6,87.4c-0.2,0-0.3,0-0.4,0.1l0,6.6h2.4c0.7-1.4,1.6-2.8,2.6-4C80,88.9,78.4,88.1,76.6,87.4"/>
				<g class="st8">
					<g>
						<defs>
							<rect id="SVGID_61_" x="76.2" y="87.4" width="5.1" height="6.6"/>
						</defs>
						<clipPath id="SVGID_62_">
							<use xlink:href="#SVGID_61_"  style="overflow:visible;"/>
						</clipPath>
						<path class="st41" d="M76.6,87.4c-0.2,0-0.3,0-0.4,0.1l0,6.6h2.4c0.7-1.4,1.6-2.8,2.6-4C80,88.9,78.4,88.1,76.6,87.4"/>
					</g>
				</g>
				<g class="st8">
					<g>
						<defs>
							<rect id="SVGID_63_" x="76.2" y="87.4" width="5.1" height="6.6"/>
						</defs>
						<clipPath id="SVGID_64_">
							<use xlink:href="#SVGID_63_"  style="overflow:visible;"/>
						</clipPath>
						<path class="st42" d="M76.6,87.4c-0.2,0-0.3,0-0.4,0.1l0,6.6h2.4c0.7-1.4,1.6-2.8,2.6-4C80,88.9,78.4,88.1,76.6,87.4"/>
					</g>
				</g>
				<path class="st7" d="M66.1,94h9.4l0-6.5C70.1,88.3,67.4,90.8,66.1,94"/>
				<g class="st8">
					<g>
						<defs>
							<rect id="SVGID_65_" x="66.1" y="87.5" width="9.4" height="6.5"/>
						</defs>
						<clipPath id="SVGID_66_">
							<use xlink:href="#SVGID_65_"  style="overflow:visible;"/>
						</clipPath>
						<path class="st43" d="M66.1,94h9.4l0-6.5C70.1,88.3,67.4,90.8,66.1,94"/>
					</g>
				</g>
				<path class="st7" d="M75.5,87.5l0,6.5h0.7l0-6.6C76,87.5,75.7,87.5,75.5,87.5"/>
				<g class="st8">
					<g>
						<defs>
							<rect id="SVGID_67_" x="75.5" y="87.4" width="0.7" height="6.6"/>
						</defs>
						<clipPath id="SVGID_68_">
							<use xlink:href="#SVGID_67_"  style="overflow:visible;"/>
						</clipPath>
						<path class="st44" d="M75.5,87.5l0,6.5h0.7l0-6.6C76,87.5,75.7,87.5,75.5,87.5"/>
					</g>
				</g>
				<g class="st8">
					<g>
						<defs>
							<rect id="SVGID_69_" x="66.1" y="87.4" width="10.1" height="6.6"/>
						</defs>
						<clipPath id="SVGID_70_">
							<use xlink:href="#SVGID_69_"  style="overflow:visible;"/>
						</clipPath>
						<path class="st45" d="M76.2,87.4c-0.2,0-0.5,0.1-0.7,0.1c-5.4,0.8-8.1,3.2-9.4,6.5h9.4h0.7L76.2,87.4z"/>
					</g>
				</g>
				<path class="st6" d="M39.5,94h3.8c-0.1-1.5-0.2-2.8-0.3-4C41.7,91.2,40.5,92.5,39.5,94"/>
				<g class="st8">
					<g>
						<defs>
							<rect id="SVGID_71_" x="39.5" y="90" width="3.8" height="4"/>
						</defs>
						<clipPath id="SVGID_72_">
							<use xlink:href="#SVGID_71_"  style="overflow:visible;"/>
						</clipPath>
						<path class="st46" d="M39.5,94h3.8c-0.1-1.5-0.2-2.8-0.3-4C41.7,91.2,40.5,92.5,39.5,94"/>
					</g>
				</g>
				<g class="st8">
					<g>
						<defs>
							<rect id="SVGID_73_" x="39.5" y="90" width="3.8" height="4"/>
						</defs>
						<clipPath id="SVGID_74_">
							<use xlink:href="#SVGID_73_"  style="overflow:visible;"/>
						</clipPath>
						<path class="st47" d="M39.5,94h3.8c-0.1-1.5-0.2-2.8-0.3-4C41.7,91.2,40.5,92.5,39.5,94"/>
					</g>
				</g>
				<polygon class="st48" points="124.9,75.4 124.9,79.6 126.8,80.5 126.8,76.3 				"/>
				<polygon class="st48" points="44.8,56 42.9,57.4 42.9,61.6 44.8,60.2 				"/>
				<polygon class="st48" points="44.8,65.3 42.9,66.8 42.9,71 44.8,69.6 				"/>
				<polygon class="st48" points="44.8,74.7 42.9,76.2 42.9,80.4 44.8,79 				"/>
				<g class="st8">
					<g>
						<defs>
							<rect id="SVGID_75_" x="100" y="85.1" width="2" height="3.7"/>
						</defs>
						<clipPath id="SVGID_76_">
							<use xlink:href="#SVGID_75_"  style="overflow:visible;"/>
						</clipPath>
						<path class="st49" d="M100,85.1v3.7c0.6-0.6,1.2-1.1,2-1.5l0-1.8C101.3,85.4,100.7,85.3,100,85.1"/>
					</g>
				</g>
				<path class="st3" d="M97,83.2c-5.6,0.3-9.8,1.9-12.9,4.2c6.1,0.5,8.7,2.3,9.9,6.6h3.4c0.5-2,1.3-3.8,2.7-5.2v-3.7
					C98.9,84.7,97.9,84,97,83.2"/>
				<g class="st8">
					<g>
						<defs>
							<rect id="SVGID_77_" x="84.1" y="83.2" width="15.9" height="10.8"/>
						</defs>
						<clipPath id="SVGID_78_">
							<use xlink:href="#SVGID_77_"  style="overflow:visible;"/>
						</clipPath>
						<path class="st50" d="M97,83.2c-5.6,0.3-9.8,1.9-12.9,4.2c6.1,0.5,8.7,2.3,9.9,6.6h3.4c0.5-2,1.3-3.8,2.7-5.2v-3.7
							C98.9,84.7,97.9,84,97,83.2"/>
					</g>
				</g>
				<path class="st4" d="M108.2,83.5c-0.2,0-0.4,0-0.6-0.1c-1.1,1-2.2,1.7-3.1,1.9c-0.9,0.2-1.7,0.2-2.5,0.2l0,1.8
					c1.8-1.1,4.3-1.8,7.6-2C109.1,84.8,108.6,84.2,108.2,83.5"/>
				<g class="st8">
					<g>
						<defs>
							<rect id="SVGID_79_" x="102" y="83.4" width="7.6" height="3.8"/>
						</defs>
						<clipPath id="SVGID_80_">
							<use xlink:href="#SVGID_79_"  style="overflow:visible;"/>
						</clipPath>
						<path class="st51" d="M108.2,83.5c-0.2,0-0.4,0-0.6-0.1c-1.1,1-2.2,1.7-3.1,1.9c-0.9,0.2-1.7,0.2-2.5,0.2l0,1.8
							c1.8-1.1,4.3-1.8,7.6-2C109.1,84.8,108.6,84.2,108.2,83.5"/>
					</g>
				</g>
				<path class="st4" d="M115.8,85.4c0.5,0,0.9,0.1,1.3,0.1c-0.3-0.1-0.7-0.3-1.1-0.4C116,85.2,115.9,85.3,115.8,85.4"/>
				<g class="st8">
					<g>
						<defs>
							<rect id="SVGID_81_" x="115.8" y="85.1" width="1.3" height="0.4"/>
						</defs>
						<clipPath id="SVGID_82_">
							<use xlink:href="#SVGID_81_"  style="overflow:visible;"/>
						</clipPath>
						<path class="st52" d="M115.8,85.4c0.5,0,0.9,0.1,1.3,0.1c-0.3-0.1-0.7-0.3-1.1-0.4C116,85.2,115.9,85.3,115.8,85.4"/>
					</g>
				</g>
				<g class="st8">
					<g>
						<defs>
							<rect id="SVGID_83_" x="100" y="83.1" width="2.1" height="2.4"/>
						</defs>
						<clipPath id="SVGID_84_">
							<use xlink:href="#SVGID_83_"  style="overflow:visible;"/>
						</clipPath>
						<path class="st53" d="M102.1,85.5l0-2.3c-0.7,0-1.4,0-2.1,0v1.9C100.7,85.3,101.3,85.4,102.1,85.5"/>
					</g>
				</g>
				<path class="st54" d="M102.1,85.5l0-2.3c-0.7,0-1.4,0-2.1,0v1.9C100.7,85.3,101.3,85.4,102.1,85.5"/>
				<path class="st3" d="M100,85.1v-1.9c-0.3,0-0.6,0-1,0c-0.7,0-1.4,0-2,0.1C97.9,84,98.9,84.7,100,85.1"/>
				<path class="st55" d="M100,85.1v-1.9c-0.3,0-0.6,0-1,0c-0.7,0-1.4,0-2,0.1C97.9,84,98.9,84.7,100,85.1"/>
				<g class="st8">
					<g>
						<defs>
							<rect id="SVGID_85_" x="97" y="83.1" width="3" height="2"/>
						</defs>
						<clipPath id="SVGID_86_">
							<use xlink:href="#SVGID_85_"  style="overflow:visible;"/>
						</clipPath>
						<path class="st56" d="M100,85.1v-1.9c-0.3,0-0.6,0-1,0c-0.7,0-1.4,0-2,0.1C97.9,84,98.9,84.7,100,85.1"/>
					</g>
				</g>
				<path class="st4" d="M104.6,85.3c0.9-0.2,2-0.8,3.1-1.9c-1.7-0.2-3.6-0.3-5.6-0.3l0,2.3C102.8,85.5,103.7,85.5,104.6,85.3"/>
				<g class="st8">
					<g>
						<defs>
							<rect id="SVGID_87_" x="102.1" y="83.1" width="5.6" height="2.4"/>
						</defs>
						<clipPath id="SVGID_88_">
							<use xlink:href="#SVGID_87_"  style="overflow:visible;"/>
						</clipPath>
						<path class="st57" d="M104.6,85.3c0.9-0.2,2-0.8,3.1-1.9c-1.7-0.2-3.6-0.3-5.6-0.3l0,2.3C102.8,85.5,103.7,85.5,104.6,85.3"/>
					</g>
				</g>
				<g class="st8">
					<g>
						<defs>
							<rect id="SVGID_89_" x="102.1" y="83.1" width="5.6" height="2.4"/>
						</defs>
						<clipPath id="SVGID_90_">
							<use xlink:href="#SVGID_89_"  style="overflow:visible;"/>
						</clipPath>
						<path class="st58" d="M104.6,85.3c0.9-0.2,2-0.8,3.1-1.9c-1.7-0.2-3.6-0.3-5.6-0.3l0,2.3C102.8,85.5,103.7,85.5,104.6,85.3"/>
					</g>
				</g>
				<path class="st4" d="M109.6,85.3c0.6,0,1.2-0.1,1.8-0.1c1.6,0,3.1,0,4.4,0.1c0.1-0.1,0.2-0.2,0.3-0.3c-2.2-0.8-4.9-1.3-7.9-1.6
					C108.6,84.2,109.1,84.8,109.6,85.3"/>
				<g class="st8">
					<g>
						<defs>
							<rect id="SVGID_91_" x="108.2" y="83.5" width="7.9" height="1.9"/>
						</defs>
						<clipPath id="SVGID_92_">
							<use xlink:href="#SVGID_91_"  style="overflow:visible;"/>
						</clipPath>
						<path class="st59" d="M109.6,85.3c0.6,0,1.2-0.1,1.8-0.1c1.6,0,3.1,0,4.4,0.1c0.1-0.1,0.2-0.2,0.3-0.3
							c-2.2-0.8-4.9-1.3-7.9-1.6C108.6,84.2,109.1,84.8,109.6,85.3"/>
					</g>
				</g>
				<g class="st8">
					<g>
						<defs>
							<rect id="SVGID_93_" x="97.3" y="86.5" width="28.5" height="7.5"/>
						</defs>
						<clipPath id="SVGID_94_">
							<use xlink:href="#SVGID_93_"  style="overflow:visible;"/>
						</clipPath>
						<path class="st60" d="M125.8,94l-5,0l0.1-6.5c-0.5-0.4-1-0.7-1.6-1V94H102l0.1-6.8c-0.8,0.5-1.4,1-2,1.6V94h-2.7c0,0,0,0,0,0
							L125.8,94C125.8,94,125.8,94,125.8,94"/>
					</g>
				</g>
				<path class="st54" d="M102,94l0.1-6.8c-0.8,0.5-1.4,1-2,1.6V94L102,94z"/>
				<path class="st13" d="M120.8,94l0.1-6.5c-0.5-0.4-1-0.7-1.6-1V94L120.8,94z"/>
				<path class="st3" d="M100,94v-5.2c-1.4,1.4-2.2,3.2-2.7,5.2H100z"/>
				<g class="st8">
					<g>
						<defs>
							<rect id="SVGID_95_" x="97.3" y="88.8" width="2.7" height="5.2"/>
						</defs>
						<clipPath id="SVGID_96_">
							<use xlink:href="#SVGID_95_"  style="overflow:visible;"/>
						</clipPath>
						<path class="st61" d="M100,94v-5.2c-1.4,1.4-2.2,3.2-2.7,5.2H100z"/>
					</g>
				</g>
				<g class="st8">
					<g>
						<defs>
							<rect id="SVGID_97_" x="97.3" y="88.8" width="2.7" height="5.2"/>
						</defs>
						<clipPath id="SVGID_98_">
							<use xlink:href="#SVGID_97_"  style="overflow:visible;"/>
						</clipPath>
						<path class="st62" d="M100,94v-5.2c-1.4,1.4-2.2,3.2-2.7,5.2H100z"/>
					</g>
				</g>
				<path class="st4" d="M115.8,85.4c-0.6,0.6-1.3,0.9-1.8,1c-1.8,0.4-3.3-0.1-4.4-1.1c-3.3,0.2-5.8,0.9-7.6,2L102,94h17.3v-7.5
					c-0.7-0.4-1.4-0.7-2.1-1C116.8,85.5,116.3,85.4,115.8,85.4"/>
				<g class="st8">
					<g>
						<defs>
							<rect id="SVGID_99_" x="102" y="85.3" width="17.3" height="8.7"/>
						</defs>
						<clipPath id="SVGID_100_">
							<use xlink:href="#SVGID_99_"  style="overflow:visible;"/>
						</clipPath>
						<path class="st63" d="M115.8,85.4c-0.6,0.6-1.3,0.9-1.8,1c-1.8,0.4-3.3-0.1-4.4-1.1c-3.3,0.2-5.8,0.9-7.6,2L102,94h17.3v-7.5
							c-0.7-0.4-1.4-0.7-2.1-1C116.8,85.5,116.3,85.4,115.8,85.4"/>
					</g>
				</g>
				<path class="st5" d="M125.8,94c-1.1-2.8-2.7-4.9-4.9-6.5l-0.1,6.5L125.8,94z"/>
				<g class="st8">
					<g>
						<defs>
							<rect id="SVGID_101_" x="120.8" y="87.5" width="5" height="6.5"/>
						</defs>
						<clipPath id="SVGID_102_">
							<use xlink:href="#SVGID_101_"  style="overflow:visible;"/>
						</clipPath>
						<path class="st64" d="M125.8,94c-1.1-2.8-2.7-4.9-4.9-6.5l-0.1,6.5L125.8,94z"/>
					</g>
				</g>
				<g class="st8">
					<g>
						<defs>
							<rect id="SVGID_103_" x="120.8" y="87.5" width="5" height="6.5"/>
						</defs>
						<clipPath id="SVGID_104_">
							<use xlink:href="#SVGID_103_"  style="overflow:visible;"/>
						</clipPath>
						<path class="st65" d="M125.8,94c-1.1-2.8-2.7-4.9-4.9-6.5l-0.1,6.5L125.8,94z"/>
					</g>
				</g>
				<path class="st4" d="M109.6,85.3c1.1,1,2.6,1.5,4.4,1.1c0.5-0.1,1.1-0.5,1.8-1c-1.3-0.1-2.8-0.1-4.4-0.1
					C110.8,85.2,110.2,85.3,109.6,85.3"/>
				<g class="st8">
					<g>
						<defs>
							<rect id="SVGID_105_" x="109.6" y="85.2" width="6.2" height="1.3"/>
						</defs>
						<clipPath id="SVGID_106_">
							<use xlink:href="#SVGID_105_"  style="overflow:visible;"/>
						</clipPath>
						<path class="st66" d="M109.6,85.3c1.1,1,2.6,1.5,4.4,1.1c0.5-0.1,1.1-0.5,1.8-1c-1.3-0.1-2.8-0.1-4.4-0.1
							C110.8,85.2,110.2,85.3,109.6,85.3"/>
					</g>
				</g>
				<g class="st8">
					<g>
						<defs>
							<rect id="SVGID_107_" x="109.6" y="85.2" width="6.2" height="1.3"/>
						</defs>
						<clipPath id="SVGID_108_">
							<use xlink:href="#SVGID_107_"  style="overflow:visible;"/>
						</clipPath>
						<path class="st67" d="M109.6,85.3c1.1,1,2.6,1.5,4.4,1.1c0.5-0.1,1.1-0.5,1.8-1c-1.3-0.1-2.8-0.1-4.4-0.1
							C110.8,85.2,110.2,85.3,109.6,85.3"/>
					</g>
				</g>
				<path class="st68" d="M117.2,85.5c-0.4-0.1-0.9-0.1-1.3-0.1c0.1-0.1,0.2-0.2,0.3-0.3c-2.2-0.8-4.9-1.3-7.9-1.6
					c0.4,0.7,0.8,1.3,1.4,1.8c-3.3,0.2-5.8,0.9-7.6,2L102,94h17.3v-7.5C118.6,86.2,117.9,85.8,117.2,85.5"/>
				<path class="st3" d="M84.1,87.4c-1.1,0.8-2,1.7-2.8,2.6c1.3,1.1,2.5,2.4,3.4,4H94C92.8,89.7,90.2,87.9,84.1,87.4"/>
				<g class="st8">
					<g>
						<defs>
							<rect id="SVGID_109_" x="81.3" y="87.4" width="12.7" height="6.6"/>
						</defs>
						<clipPath id="SVGID_110_">
							<use xlink:href="#SVGID_109_"  style="overflow:visible;"/>
						</clipPath>
						<path class="st69" d="M84.1,87.4c-1.1,0.8-2,1.7-2.8,2.6c1.3,1.1,2.5,2.4,3.4,4H94C92.8,89.7,90.2,87.9,84.1,87.4"/>
					</g>
				</g>
				<g class="st8">
					<g>
						<defs>
							<rect id="SVGID_111_" x="81.3" y="87.4" width="12.7" height="6.6"/>
						</defs>
						<clipPath id="SVGID_112_">
							<use xlink:href="#SVGID_111_"  style="overflow:visible;"/>
						</clipPath>
						<path class="st70" d="M84.1,87.4c-1.1,0.8-2,1.7-2.8,2.6c1.3,1.1,2.5,2.4,3.4,4H94C92.8,89.7,90.2,87.9,84.1,87.4"/>
					</g>
				</g>
				<path class="st3" d="M81.3,90c-1,1.2-1.9,2.6-2.6,4h6C83.7,92.4,82.6,91.1,81.3,90"/>
				<g class="st8">
					<g>
						<defs>
							<rect id="SVGID_113_" x="78.6" y="90" width="6" height="4"/>
						</defs>
						<clipPath id="SVGID_114_">
							<use xlink:href="#SVGID_113_"  style="overflow:visible;"/>
						</clipPath>
						<path class="st71" d="M81.3,90c-1,1.2-1.9,2.6-2.6,4h6C83.7,92.4,82.6,91.1,81.3,90"/>
					</g>
				</g>
				<g class="st8">
					<g>
						<defs>
							<rect id="SVGID_115_" x="78.6" y="90" width="6" height="4"/>
						</defs>
						<clipPath id="SVGID_116_">
							<use xlink:href="#SVGID_115_"  style="overflow:visible;"/>
						</clipPath>
						<path class="st72" d="M81.3,90c-1,1.2-1.9,2.6-2.6,4h6C83.7,92.4,82.6,91.1,81.3,90"/>
					</g>
				</g>
				<g class="st8">
					<g>
						<defs>
							<rect id="SVGID_117_" x="78.6" y="90" width="6" height="4"/>
						</defs>
						<clipPath id="SVGID_118_">
							<use xlink:href="#SVGID_117_"  style="overflow:visible;"/>
						</clipPath>
						<path class="st73" d="M81.3,90c-1,1.2-1.9,2.6-2.6,4h6C83.7,92.4,82.6,91.1,81.3,90"/>
					</g>
				</g>
				<path class="st15" d="M109.6,85.3c1.1,1,2.6,1.5,4.4,1.1c0.5-0.1,1.1-0.5,1.8-1c-1.3-0.1-2.8-0.1-4.4-0.1
					C110.8,85.2,110.2,85.3,109.6,85.3"/>
				<polygon class="st74" points="149.4,44.8 152.2,44.8 152.2,53.9 163,53.9 163,44.8 165.8,44.8 165.8,66.3 163,66.3 163,56.5 
					152.2,56.5 152.2,66.3 149.4,66.3 				"/>
				<path class="st74" d="M179.4,66.9c-1.5,0-2.8-0.2-4-0.7c-1.2-0.5-2.3-1.2-3.1-2.2c-0.9-1-1.6-2.1-2-3.5c-0.5-1.4-0.7-3-0.7-4.8
					c0-1.8,0.2-3.4,0.7-4.8c0.5-1.4,1.2-2.6,2-3.6c0.9-1,1.9-1.7,3.1-2.2c1.2-0.5,2.5-0.8,4-0.8c1.5,0,2.8,0.2,4,0.7
					c1.2,0.5,2.3,1.2,3.1,2.2c0.9,1,1.5,2.1,2,3.5c0.5,1.4,0.7,3,0.7,4.8c0,1.8-0.2,3.4-0.7,4.8c-0.5,1.4-1.1,2.6-2,3.6
					c-0.9,1-1.9,1.7-3.1,2.2C182.2,66.6,180.9,66.9,179.4,66.9 M179.4,64.5c1.1,0,2.2-0.2,3-0.6c0.9-0.4,1.6-1,2.2-1.8
					c0.6-0.8,1-1.7,1.3-2.8c0.3-1.1,0.5-2.3,0.5-3.7c0-1.3-0.1-2.5-0.5-3.6c-0.3-1.1-0.7-2-1.3-2.8c-0.6-0.8-1.3-1.4-2.2-1.8
					c-0.9-0.4-1.9-0.6-3-0.6c-1.2,0-2.2,0.2-3.1,0.6c-0.9,0.4-1.6,1-2.2,1.8c-0.6,0.8-1,1.7-1.3,2.8c-0.3,1.1-0.4,2.3-0.4,3.6
					c0,1.3,0.1,2.6,0.4,3.7c0.3,1.1,0.7,2,1.3,2.8c0.6,0.8,1.3,1.4,2.2,1.8C177.2,64.3,178.2,64.5,179.4,64.5"/>
				<path class="st74" d="M192.7,44.8h2.8v13c0,2.2,0.4,3.9,1.2,5c0.8,1.1,2.2,1.7,4.1,1.7c1.9,0,3.3-0.6,4.1-1.7
					c0.8-1.1,1.2-2.8,1.2-5v-13h2.8v13c0,1.6-0.2,3-0.6,4.1c-0.4,1.1-0.9,2.1-1.6,2.8c-0.7,0.7-1.5,1.3-2.6,1.6
					c-1,0.3-2.2,0.5-3.4,0.5c-2.6,0-4.6-0.7-6-2.2c-1.4-1.4-2.1-3.8-2.1-7V44.8z"/>
				<path class="st74" d="M215.4,60.2c0.2,1.5,0.8,2.6,1.8,3.3c1,0.7,2.4,1,4.3,1c0.9,0,1.7-0.1,2.4-0.3c0.6-0.2,1.1-0.5,1.5-0.8
					c0.4-0.4,0.7-0.8,0.8-1.2c0.2-0.5,0.2-1,0.2-1.5c0-0.4-0.1-0.8-0.1-1.2c-0.1-0.4-0.3-0.7-0.6-1.1s-0.7-0.6-1.2-0.8
					c-0.5-0.2-1.2-0.4-2-0.6l-2.7-0.5c-1.1-0.2-2-0.4-2.8-0.7c-0.8-0.3-1.5-0.7-2.1-1.2c-0.6-0.5-1-1.1-1.3-1.8
					c-0.3-0.7-0.4-1.6-0.4-2.6c0-1,0.2-1.8,0.6-2.6c0.4-0.7,1-1.4,1.7-1.9c0.7-0.5,1.5-0.9,2.5-1.1c1-0.2,2-0.4,3.1-0.4
					c1.4,0,2.6,0.2,3.6,0.5c1,0.3,1.7,0.7,2.3,1.2c0.6,0.5,1.1,1.1,1.4,1.8c0.3,0.7,0.5,1.4,0.7,2.1l-2.6,0.5
					c-0.2-0.6-0.4-1.1-0.6-1.6c-0.3-0.5-0.6-0.9-1-1.2c-0.4-0.3-0.9-0.5-1.5-0.7c-0.6-0.2-1.3-0.2-2.2-0.2c-1,0-1.8,0.1-2.5,0.3
					c-0.7,0.2-1.2,0.4-1.6,0.7c-0.4,0.3-0.7,0.7-0.9,1.1c-0.2,0.4-0.3,0.9-0.3,1.4c0,0.5,0.1,1,0.2,1.4c0.1,0.4,0.4,0.7,0.7,1
					c0.3,0.3,0.7,0.5,1.2,0.7c0.5,0.2,1.1,0.4,1.9,0.5l3,0.5c2.2,0.4,3.9,1.1,4.9,2.1c1,1,1.6,2.4,1.6,4.3c0,0.9-0.2,1.7-0.5,2.4
					c-0.3,0.8-0.8,1.4-1.5,2c-0.7,0.6-1.5,1-2.5,1.3c-1,0.3-2.1,0.5-3.5,0.5c-1.3,0-2.4-0.1-3.5-0.4c-1-0.3-1.9-0.7-2.7-1.2
					c-0.8-0.5-1.4-1.2-1.8-2.1c-0.5-0.8-0.7-1.9-0.8-3H215.4z"/>
				<rect x="233.5" y="44.8" class="st74" width="2.8" height="21.5"/>
				<polygon class="st74" points="240.7,44.8 243.4,44.8 254.4,61.9 254.4,44.8 257,44.8 257,66.3 254.4,66.3 243.4,49.4 
					243.4,66.3 240.7,66.3 				"/>
				<path class="st74" d="M270.9,55.3h8v8.6c-0.5,0.5-1.1,0.9-1.8,1.3c-0.7,0.4-1.3,0.7-2,0.9c-0.7,0.3-1.4,0.4-2.2,0.6
					c-0.8,0.1-1.5,0.2-2.2,0.2c-1.6,0-3-0.3-4.2-0.8c-1.2-0.5-2.3-1.2-3.1-2.2c-0.9-1-1.5-2.1-1.9-3.5c-0.4-1.4-0.7-3-0.7-4.7
					c0-1.8,0.2-3.4,0.7-4.8c0.5-1.4,1.1-2.6,2-3.6c0.9-1,1.9-1.7,3.1-2.2c1.2-0.5,2.5-0.8,3.9-0.8c1.2,0,2.3,0.1,3.2,0.4
					c0.9,0.3,1.7,0.7,2.4,1.3c0.7,0.5,1.2,1.2,1.6,2c0.4,0.8,0.7,1.6,1,2.5l-2.7,0.5c-0.2-0.6-0.4-1.2-0.6-1.7s-0.6-1-1-1.3
					c-0.4-0.4-0.9-0.7-1.6-0.9c-0.6-0.2-1.4-0.3-2.2-0.3c-1.1,0-2.1,0.2-3,0.6c-0.8,0.4-1.5,1-2.1,1.8c-0.6,0.8-1,1.7-1.3,2.8
					c-0.3,1.1-0.4,2.3-0.4,3.6c0,1.3,0.1,2.5,0.4,3.6c0.3,1.1,0.7,2,1.3,2.8c0.6,0.8,1.3,1.4,2.2,1.8c0.9,0.4,1.9,0.6,3.1,0.6
					c1.1,0,2.1-0.1,3.1-0.4s1.8-0.7,2.6-1.2v-5.1h-5.4V55.3z"/>
				<polygon class="st75" points="149.4,73 152.8,73 159.8,91.2 166.8,73 170.1,73 170.1,94.5 167.6,94.5 167.6,77.5 160.8,94.5 
					158.6,94.5 151.9,77.6 151.9,94.5 149.4,94.5 				"/>
				<path class="st75" d="M180.3,73h2.9l8.3,21.5h-3l-2.3-6h-9.2l-2.3,6h-2.9L180.3,73z M185.4,86.1l-3.8-10l-3.7,10H185.4z"/>
				<polygon class="st75" points="196.2,75.4 189.1,75.4 189.1,73 206.1,73 206.1,75.4 199,75.4 199,94.5 196.2,94.5 				"/>
				<polygon class="st75" points="215,75.4 207.9,75.4 207.9,73 224.9,73 224.9,75.4 217.8,75.4 217.8,94.5 215,94.5 				"/>
				<polygon class="st75" points="227.5,73 241.4,73 241.4,75.4 230.3,75.4 230.3,82.2 240.8,82.2 240.8,84.6 230.3,84.6 
					230.3,92.1 242,92.1 241.6,94.5 227.5,94.5 				"/>
				<path class="st75" d="M245.1,73h7c1.6,0,2.9,0.2,3.9,0.5c1,0.4,1.8,0.8,2.4,1.4c0.6,0.6,1,1.2,1.2,1.9c0.2,0.7,0.3,1.5,0.3,2.2
					c0,1.4-0.3,2.5-0.9,3.5c-0.6,1-1.5,1.7-2.8,2.3l4.5,9.7h-3.1l-4.1-9c-0.3,0-0.5,0.1-0.8,0.1c-0.3,0-0.6,0-0.8,0h-4.2v8.9h-2.7
					V73z M252.4,83.2c1,0,1.8-0.1,2.4-0.3c0.6-0.2,1.1-0.5,1.5-0.8c0.4-0.3,0.6-0.8,0.8-1.3c0.1-0.5,0.2-1.1,0.2-1.7
					c0-0.6-0.1-1.1-0.2-1.6s-0.4-0.9-0.8-1.2c-0.4-0.3-0.9-0.6-1.6-0.8c-0.7-0.2-1.5-0.3-2.5-0.3h-4.2v7.8H252.4z"/>
				<path class="st75" d="M265.4,88.3c0.2,1.5,0.8,2.6,1.8,3.3c1,0.7,2.4,1,4.3,1c0.9,0,1.7-0.1,2.4-0.3c0.6-0.2,1.1-0.5,1.5-0.8
					c0.4-0.4,0.7-0.8,0.8-1.2c0.2-0.5,0.2-1,0.2-1.5c0-0.4-0.1-0.8-0.1-1.2c-0.1-0.4-0.3-0.7-0.6-1.1c-0.3-0.3-0.7-0.6-1.2-0.8
					c-0.5-0.2-1.2-0.4-2-0.6l-2.7-0.5c-1.1-0.2-2-0.4-2.8-0.7c-0.8-0.3-1.5-0.7-2.1-1.2c-0.6-0.5-1-1.1-1.3-1.8
					c-0.3-0.7-0.4-1.6-0.4-2.6c0-1,0.2-1.8,0.6-2.6c0.4-0.7,1-1.4,1.7-1.9c0.7-0.5,1.5-0.9,2.5-1.1c1-0.2,2-0.4,3.1-0.4
					c1.4,0,2.6,0.2,3.6,0.5c1,0.3,1.7,0.7,2.3,1.2c0.6,0.5,1.1,1.1,1.4,1.8c0.3,0.7,0.5,1.4,0.7,2.1l-2.6,0.5
					c-0.2-0.6-0.4-1.1-0.6-1.6c-0.3-0.5-0.6-0.9-1-1.2c-0.4-0.3-0.9-0.5-1.5-0.7c-0.6-0.2-1.3-0.2-2.2-0.2c-1,0-1.8,0.1-2.5,0.3
					s-1.2,0.4-1.6,0.7s-0.7,0.7-0.9,1.1s-0.3,0.9-0.3,1.4c0,0.5,0.1,1,0.2,1.4c0.1,0.4,0.4,0.7,0.7,1c0.3,0.3,0.7,0.5,1.2,0.7
					c0.5,0.2,1.1,0.4,1.9,0.5l3,0.5c2.2,0.4,3.9,1.1,4.9,2.1c1,1,1.6,2.4,1.6,4.3c0,0.9-0.2,1.7-0.5,2.4c-0.3,0.8-0.8,1.4-1.5,2
					c-0.7,0.6-1.5,1-2.5,1.3c-1,0.3-2.1,0.5-3.5,0.5c-1.3,0-2.4-0.1-3.5-0.4c-1-0.3-1.9-0.7-2.7-1.2c-0.8-0.5-1.4-1.2-1.8-2.1
					c-0.5-0.8-0.7-1.9-0.8-3H265.4z"/>
				<polygon class="st76" points="149.4,21.4 150.8,21.4 150.8,29.1 160.7,29.1 160.7,21.4 162.2,21.4 162.2,38.8 160.7,38.8 
					160.7,30.5 150.8,30.5 150.8,38.8 149.4,38.8 				"/>
				<path class="st76" d="M175.2,39.3c-1.1,0-2.2-0.2-3.1-0.6c-1-0.4-1.8-1-2.5-1.7c-0.7-0.8-1.2-1.7-1.6-2.9
					c-0.4-1.1-0.6-2.5-0.6-4s0.2-2.8,0.6-4c0.4-1.1,1-2.1,1.7-2.9c0.7-0.8,1.5-1.4,2.5-1.8c1-0.4,2-0.6,3.1-0.6
					c1.1,0,2.2,0.2,3.1,0.6c1,0.4,1.8,1,2.5,1.7c0.7,0.8,1.2,1.7,1.6,2.8c0.4,1.1,0.6,2.4,0.6,3.9c0,1.5-0.2,2.8-0.6,4
					c-0.4,1.1-0.9,2.1-1.6,2.9c-0.7,0.8-1.5,1.4-2.5,1.8C177.4,39.1,176.3,39.3,175.2,39.3 M175.2,38c1,0,1.9-0.2,2.7-0.6
					c0.8-0.4,1.4-0.9,2-1.6c0.5-0.7,0.9-1.5,1.2-2.5c0.3-1,0.4-2,0.4-3.2s-0.1-2.2-0.4-3.2c-0.3-1-0.7-1.8-1.2-2.5
					c-0.5-0.7-1.2-1.2-2-1.6c-0.8-0.4-1.7-0.6-2.7-0.6c-1.1,0-2,0.2-2.8,0.6c-0.8,0.4-1.4,0.9-2,1.6c-0.5,0.7-0.9,1.5-1.2,2.5
					s-0.4,2-0.4,3.2s0.1,2.2,0.4,3.2c0.3,1,0.7,1.8,1.2,2.5c0.5,0.7,1.2,1.2,2,1.6C173.2,37.8,174.1,38,175.2,38"/>
				<polygon class="st76" points="185.4,21.4 187.1,21.4 191.2,37 195.5,21.5 197.1,21.5 201.3,37 205.5,21.4 207.1,21.4 
					202.1,38.8 200.4,38.8 196.2,23.3 192,38.8 190.4,38.8 				"/>
			</g>
		</g>
	</g>
</g>
</svg>
